<?xml version="1.0" encoding="UTF-8"?>
<svg xmlns="http://www.w3.org/2000/svg" xmlns:xlink="http://www.w3.org/1999/xlink" width="200px" height="46px" viewBox="0 0 200 46" version="1.1">
<g id="surface1">
<path style=" stroke:none;fill-rule:nonzero;fill:rgb(53.72549%,26.27451%,3.921569%);fill-opacity:1;" d="M 164.683594 45.496094 C 164.597656 45.496094 164.527344 45.425781 164.527344 45.335938 L 164.527344 0.160156 C 164.527344 0.0703125 164.597656 0 164.683594 0 C 164.769531 0 164.84375 0.0703125 164.84375 0.160156 L 164.84375 45.351562 C 164.84375 45.425781 164.769531 45.496094 164.683594 45.496094 Z M 164.683594 45.496094 "/>
<path style=" stroke:none;fill-rule:nonzero;fill:rgb(53.72549%,26.27451%,3.921569%);fill-opacity:1;" d="M 39.808594 23.476562 C 39.808594 22.929688 39.78125 22.378906 39.738281 21.847656 C 39.738281 21.789062 39.679688 21.746094 39.621094 21.761719 L 39.480469 21.777344 C 39.421875 21.777344 39.394531 21.832031 39.394531 21.875 C 39.4375 22.394531 39.464844 22.941406 39.464844 23.460938 C 39.464844 32.777344 31.910156 40.355469 22.621094 40.355469 C 13.328125 40.355469 5.761719 32.792969 5.761719 23.476562 C 5.761719 19.097656 7.425781 14.933594 10.457031 11.78125 C 13.457031 8.65625 17.464844 6.8125 21.773438 6.609375 C 21.832031 6.609375 21.875 6.566406 21.859375 6.507812 L 21.859375 6.367188 C 21.859375 6.308594 21.816406 6.265625 21.757812 6.265625 C 17.363281 6.480469 13.273438 8.351562 10.214844 11.550781 C 7.125 14.761719 5.417969 19.011719 5.417969 23.476562 C 5.417969 32.980469 13.128906 40.714844 22.605469 40.714844 C 32.082031 40.714844 39.808594 32.980469 39.808594 23.476562 Z M 39.808594 23.476562 "/>
<path style=" stroke:none;fill-rule:nonzero;fill:rgb(53.72549%,26.27451%,3.921569%);fill-opacity:1;" d="M 22.648438 0.804688 C 16.632812 0.804688 10.972656 3.152344 6.722656 7.429688 C 2.457031 11.679688 0.117188 17.367188 0.117188 23.402344 C 0.117188 28.054688 1.511719 32.519531 4.152344 36.308594 C 4.183594 36.351562 4.238281 36.363281 4.296875 36.335938 L 4.410156 36.25 C 4.453125 36.222656 4.46875 36.164062 4.441406 36.105469 C 1.8125 32.332031 0.433594 27.882812 0.460938 23.257812 C 0.503906 17.3125 2.917969 11.621094 7.15625 7.476562 C 11.332031 3.382812 16.832031 1.136719 22.664062 1.152344 C 28.550781 1.152344 34.179688 3.5 38.332031 7.660156 C 42.539062 11.882812 44.851562 17.5 44.820312 23.476562 C 44.808594 29.351562 42.464844 34.96875 38.332031 39.128906 C 34.136719 43.335938 28.566406 45.640625 22.648438 45.640625 C 21.988281 45.640625 21.328125 45.609375 20.683594 45.554688 C 20.625 45.554688 20.582031 45.582031 20.582031 45.640625 L 20.566406 45.785156 C 20.566406 45.839844 20.59375 45.886719 20.652344 45.898438 C 21.3125 45.957031 21.988281 45.984375 22.648438 45.984375 C 28.664062 45.984375 34.324219 43.636719 38.574219 39.359375 C 42.824219 35.097656 45.179688 29.421875 45.179688 23.390625 C 45.179688 17.355469 42.839844 11.679688 38.574219 7.417969 C 34.324219 3.152344 28.664062 0.804688 22.648438 0.804688 Z M 22.648438 0.804688 "/>
<path style=" stroke:none;fill-rule:nonzero;fill:rgb(53.72549%,26.27451%,3.921569%);fill-opacity:1;" d="M 22.375 9.375 C 22.347656 9.390625 22.332031 9.390625 22.320312 9.390625 C 22.289062 9.40625 22.261719 9.40625 22.234375 9.417969 C 22.03125 9.492188 21.859375 9.621094 21.746094 9.792969 C 21.730469 9.820312 21.714844 9.835938 21.703125 9.851562 C 21.6875 9.894531 21.628906 9.921875 21.585938 9.921875 C 21.558594 9.921875 21.527344 9.9375 21.5 9.9375 C 21.472656 9.9375 21.441406 9.953125 21.429688 9.953125 C 21.226562 9.980469 21.011719 10.039062 20.753906 10.109375 C 19.761719 10.382812 18.859375 10.902344 18.109375 11.609375 C 17.578125 12.113281 17.148438 12.6875 16.820312 13.351562 C 16.804688 13.363281 16.804688 13.394531 16.789062 13.410156 C 16.777344 13.421875 16.777344 13.453125 16.761719 13.464844 C 16.734375 13.507812 16.746094 13.550781 16.777344 13.582031 C 16.804688 13.609375 16.820312 13.640625 16.847656 13.667969 L 16.90625 13.738281 C 16.992188 13.839844 17.089844 13.96875 17.191406 14.128906 C 17.277344 14.257812 17.351562 14.402344 17.4375 14.574219 C 17.652344 15.035156 17.824219 15.453125 17.9375 15.871094 C 17.996094 16.058594 18.054688 16.246094 18.097656 16.433594 C 18.125 16.519531 18.140625 16.605469 18.167969 16.691406 C 18.199219 16.808594 18.226562 16.90625 18.253906 17.023438 C 18.285156 17.136719 18.3125 17.238281 18.339844 17.355469 C 18.355469 17.382812 18.371094 17.410156 18.425781 17.410156 L 18.988281 17.355469 C 19.101562 17.339844 19.21875 17.324219 19.332031 17.324219 L 19.617188 17.296875 C 19.734375 17.28125 19.863281 17.28125 19.992188 17.269531 L 20.421875 17.238281 C 20.609375 17.226562 20.796875 17.226562 20.953125 17.210938 L 20.984375 17.210938 C 21.140625 17.195312 21.285156 17.195312 21.441406 17.195312 C 21.917969 17.179688 22.40625 17.167969 22.878906 17.179688 C 23.023438 17.179688 23.167969 17.179688 23.324219 17.179688 C 23.523438 17.179688 23.726562 17.195312 23.914062 17.195312 C 24.011719 17.195312 24.113281 17.210938 24.214844 17.210938 C 24.257812 17.210938 24.300781 17.210938 24.328125 17.210938 C 24.371094 17.210938 24.402344 17.210938 24.445312 17.210938 L 24.902344 17.238281 L 25.390625 17.28125 C 25.476562 17.296875 25.5625 17.296875 25.648438 17.3125 L 26.195312 17.367188 L 26.699219 17.425781 L 26.726562 17.425781 C 26.757812 17.425781 26.769531 17.410156 26.785156 17.398438 C 26.800781 17.382812 26.800781 17.367188 26.800781 17.355469 C 26.828125 17.269531 26.84375 17.179688 26.871094 17.09375 C 26.898438 17.007812 26.914062 16.921875 26.941406 16.835938 L 26.957031 16.792969 C 26.972656 16.734375 26.984375 16.664062 27.015625 16.605469 C 27.015625 16.578125 27.027344 16.5625 27.027344 16.546875 C 27.042969 16.519531 27.042969 16.503906 27.042969 16.476562 C 27.128906 16.144531 27.230469 15.800781 27.34375 15.46875 C 27.460938 15.136719 27.589844 14.820312 27.734375 14.515625 C 27.90625 14.1875 28.089844 13.898438 28.320312 13.640625 L 28.335938 13.625 C 28.394531 13.582031 28.394531 13.496094 28.363281 13.4375 L 28.363281 13.421875 C 27.503906 11.636719 25.835938 10.355469 23.898438 9.996094 C 23.796875 9.980469 23.683594 9.964844 23.582031 9.9375 L 23.566406 9.9375 C 23.539062 9.9375 23.496094 9.910156 23.480469 9.878906 L 23.480469 9.867188 C 23.480469 9.867188 23.480469 9.851562 23.46875 9.851562 C 23.339844 9.636719 23.136719 9.476562 22.894531 9.417969 C 22.863281 9.40625 22.851562 9.40625 22.820312 9.390625 C 22.820312 9.390625 22.820312 9.375 22.820312 9.375 C 22.820312 9.359375 22.820312 9.359375 22.808594 9.359375 C 22.792969 9.246094 22.792969 9.117188 22.808594 9.015625 L 22.820312 8.988281 L 22.835938 8.972656 C 22.835938 8.972656 22.851562 8.972656 22.863281 8.972656 L 23.007812 8.972656 C 23.023438 8.972656 23.050781 8.972656 23.066406 8.972656 C 23.078125 8.972656 23.09375 8.972656 23.121094 8.972656 C 23.152344 8.972656 23.179688 8.945312 23.179688 8.914062 L 23.195312 8.871094 C 23.210938 8.800781 23.195312 8.757812 23.179688 8.683594 C 23.179688 8.65625 23.152344 8.625 23.121094 8.625 C 23.09375 8.613281 23.078125 8.613281 23.066406 8.613281 L 22.90625 8.613281 C 22.878906 8.613281 22.851562 8.613281 22.835938 8.613281 L 22.820312 8.597656 C 22.820312 8.597656 22.820312 8.582031 22.820312 8.570312 L 22.820312 8.195312 L 22.808594 8.179688 C 22.792969 8.164062 22.777344 8.152344 22.75 8.152344 L 22.519531 8.152344 C 22.492188 8.152344 22.433594 8.152344 22.433594 8.222656 L 22.433594 8.570312 C 22.433594 8.570312 22.433594 8.570312 22.433594 8.582031 C 22.433594 8.582031 22.433594 8.597656 22.433594 8.613281 L 22.417969 8.613281 C 22.417969 8.613281 22.40625 8.613281 22.390625 8.613281 L 22.246094 8.613281 C 22.203125 8.613281 22.160156 8.613281 22.132812 8.625 C 22.101562 8.625 22.074219 8.65625 22.074219 8.683594 C 22.058594 8.757812 22.058594 8.855469 22.074219 8.945312 C 22.074219 8.957031 22.101562 8.988281 22.148438 8.988281 L 22.433594 8.988281 C 22.449219 8.988281 22.449219 8.988281 22.449219 8.988281 L 22.375 9.375 C 22.390625 9.359375 22.375 9.375 22.375 9.375 Z M 22.203125 12.542969 C 22.277344 12.472656 22.375 12.429688 22.476562 12.414062 C 22.503906 12.414062 22.546875 12.398438 22.578125 12.398438 C 22.632812 12.398438 22.707031 12.414062 22.777344 12.429688 C 22.863281 12.457031 22.9375 12.5 23.007812 12.542969 C 23.152344 12.671875 23.253906 12.847656 23.296875 13.035156 C 23.308594 13.121094 23.324219 13.222656 23.324219 13.308594 L 23.324219 14.863281 C 23.324219 14.863281 23.324219 14.863281 23.308594 14.863281 L 21.886719 14.863281 C 21.886719 14.863281 21.886719 14.863281 21.886719 14.847656 L 21.886719 13.25 C 21.886719 13.148438 21.902344 13.0625 21.917969 12.992188 C 21.960938 12.832031 22.058594 12.671875 22.203125 12.542969 Z M 22.117188 11.277344 C 22.175781 11.304688 22.234375 11.320312 22.304688 11.347656 C 22.503906 11.40625 22.734375 11.390625 22.9375 11.304688 L 23.007812 11.277344 C 22.992188 11.378906 22.980469 11.464844 22.964844 11.550781 C 22.949219 11.679688 22.9375 11.808594 22.921875 11.9375 C 22.921875 11.996094 22.90625 12.039062 22.90625 12.097656 L 22.648438 12.039062 C 22.621094 12.039062 22.589844 12.027344 22.5625 12.027344 C 22.535156 12.027344 22.492188 12.027344 22.460938 12.039062 L 22.246094 12.082031 C 22.234375 12.082031 22.234375 12.082031 22.21875 12.082031 L 22.203125 12.070312 L 22.160156 11.679688 C 22.148438 11.550781 22.132812 11.421875 22.117188 11.277344 C 22.132812 11.304688 22.132812 11.292969 22.117188 11.277344 Z M 21.714844 10.988281 C 21.714844 10.988281 21.730469 11.003906 21.714844 10.988281 L 21.730469 11.015625 C 21.730469 11.015625 21.730469 11.03125 21.730469 11.03125 C 21.746094 11.089844 21.746094 11.160156 21.757812 11.21875 C 21.773438 11.277344 21.773438 11.335938 21.773438 11.390625 C 21.789062 11.449219 21.789062 11.523438 21.800781 11.59375 C 21.816406 11.664062 21.816406 11.722656 21.832031 11.796875 L 21.886719 12.257812 C 21.902344 12.285156 21.886719 12.3125 21.875 12.328125 L 21.875 12.34375 C 21.859375 12.355469 21.84375 12.371094 21.832031 12.386719 C 21.660156 12.574219 21.558594 12.804688 21.527344 13.0625 C 21.515625 13.179688 21.515625 13.292969 21.515625 13.421875 L 21.515625 14.878906 L 21.269531 14.890625 C 21.269531 14.890625 21.257812 14.878906 21.257812 14.847656 C 21.257812 14.820312 21.257812 14.789062 21.257812 14.746094 L 21.226562 13.984375 C 21.226562 13.78125 21.214844 13.582031 21.214844 13.378906 C 21.199219 13.265625 21.199219 13.179688 21.171875 13.078125 C 21.125 12.875 21.011719 12.703125 20.867188 12.574219 C 20.796875 12.5 20.695312 12.429688 20.59375 12.386719 C 20.421875 12.285156 20.222656 12.257812 20.035156 12.269531 C 19.761719 12.285156 19.53125 12.414062 19.359375 12.617188 C 19.230469 12.773438 19.132812 12.949219 19.085938 13.132812 C 19.074219 13.265625 19.058594 13.378906 19.074219 13.480469 C 19.085938 13.59375 19.101562 13.726562 19.132812 13.839844 C 19.203125 14.242188 19.289062 14.648438 19.375 15.035156 L 19.375 15.050781 L 19.390625 15.066406 C 19.390625 15.066406 19.390625 15.078125 19.390625 15.078125 C 19.390625 15.078125 19.390625 15.078125 19.390625 15.09375 C 19.375 15.109375 19.359375 15.109375 19.347656 15.109375 L 19.175781 15.136719 L 19.160156 15.136719 C 19.144531 15.109375 19.132812 15.078125 19.132812 15.035156 C 19.015625 14.691406 18.871094 14.34375 18.699219 13.941406 L 18.613281 13.769531 C 18.511719 13.609375 18.382812 13.480469 18.210938 13.378906 L 18.183594 13.363281 C 18.183594 13.363281 18.167969 13.351562 18.15625 13.351562 C 18.15625 13.351562 18.15625 13.351562 18.167969 13.335938 C 18.511719 12.789062 18.972656 12.300781 19.503906 11.925781 C 20.035156 11.550781 20.625 11.277344 21.257812 11.105469 C 21.355469 11.0625 21.527344 11.03125 21.714844 10.988281 Z M 20.910156 14.847656 L 20.910156 14.933594 C 20.910156 14.949219 20.910156 14.949219 20.898438 14.949219 L 19.761719 15.035156 C 19.761719 15.035156 19.761719 15.035156 19.761719 15.019531 C 19.761719 15.019531 19.761719 15.007812 19.761719 14.992188 C 19.761719 14.976562 19.761719 14.964844 19.75 14.964844 L 19.707031 14.789062 C 19.632812 14.460938 19.5625 14.144531 19.503906 13.8125 C 19.488281 13.769531 19.488281 13.710938 19.476562 13.667969 C 19.460938 13.625 19.460938 13.566406 19.445312 13.523438 C 19.402344 13.277344 19.488281 13.019531 19.675781 12.832031 C 19.71875 12.789062 19.761719 12.746094 19.835938 12.71875 C 19.964844 12.644531 20.136719 12.617188 20.28125 12.660156 C 20.550781 12.730469 20.753906 12.933594 20.824219 13.222656 C 20.839844 13.277344 20.855469 13.351562 20.855469 13.421875 C 20.867188 13.667969 20.867188 13.914062 20.882812 14.257812 C 20.882812 14.386719 20.898438 14.617188 20.910156 14.847656 Z M 21.628906 10.644531 Z M 17.351562 13.265625 C 18.199219 11.796875 19.617188 10.757812 21.257812 10.398438 C 21.328125 10.382812 21.414062 10.355469 21.5 10.339844 C 21.515625 10.339844 21.527344 10.339844 21.558594 10.328125 C 21.570312 10.328125 21.585938 10.328125 21.601562 10.3125 L 21.601562 10.339844 C 21.601562 10.425781 21.613281 10.527344 21.628906 10.601562 L 21.628906 10.644531 C 21.613281 10.644531 21.601562 10.644531 21.585938 10.65625 C 21.570312 10.65625 21.558594 10.65625 21.542969 10.671875 C 21.054688 10.757812 20.582031 10.902344 20.152344 11.117188 C 19.460938 11.449219 18.859375 11.894531 18.355469 12.472656 C 18.199219 12.660156 18.039062 12.875 17.867188 13.121094 C 17.851562 13.164062 17.824219 13.207031 17.796875 13.234375 L 17.796875 13.25 C 17.796875 13.265625 17.78125 13.265625 17.765625 13.265625 L 17.652344 13.25 C 17.566406 13.25 17.464844 13.25 17.363281 13.292969 C 17.351562 13.265625 17.351562 13.265625 17.351562 13.265625 Z M 18.242188 15.324219 C 18.242188 15.324219 18.226562 15.324219 18.210938 15.339844 C 18.199219 15.339844 18.199219 15.339844 18.183594 15.351562 C 18.183594 15.351562 18.183594 15.339844 18.183594 15.339844 C 18.183594 15.324219 18.183594 15.308594 18.167969 15.308594 C 18.082031 15.035156 17.96875 14.761719 17.796875 14.417969 C 17.679688 14.171875 17.535156 13.941406 17.363281 13.695312 L 17.335938 13.652344 C 17.507812 13.609375 17.667969 13.59375 17.808594 13.640625 C 17.867188 13.652344 17.925781 13.683594 17.980469 13.710938 C 18.109375 13.769531 18.226562 13.882812 18.285156 14.011719 C 18.382812 14.230469 18.484375 14.460938 18.570312 14.691406 C 18.597656 14.777344 18.628906 14.847656 18.65625 14.921875 C 18.6875 14.992188 18.714844 15.078125 18.742188 15.152344 C 18.757812 15.164062 18.757812 15.195312 18.757812 15.207031 C 18.742188 15.222656 18.730469 15.222656 18.714844 15.238281 Z M 26.914062 15.667969 L 26.886719 15.742188 C 26.84375 15.855469 26.8125 15.957031 26.785156 16.074219 C 26.769531 16.144531 26.742188 16.203125 26.726562 16.273438 C 26.714844 16.347656 26.683594 16.402344 26.671875 16.476562 L 26.496094 17.007812 C 26.484375 17.039062 26.453125 17.023438 26.410156 17.023438 L 25.59375 16.9375 C 25.535156 16.9375 25.464844 16.921875 25.390625 16.921875 C 25.320312 16.90625 25.261719 16.90625 25.191406 16.90625 L 24.273438 16.851562 L 24.1875 16.835938 C 24.085938 16.835938 23.984375 16.820312 23.871094 16.820312 C 23.667969 16.808594 23.453125 16.808594 23.238281 16.808594 C 23.109375 16.808594 22.964844 16.808594 22.835938 16.808594 C 22.707031 16.808594 22.5625 16.808594 22.433594 16.808594 C 22.277344 16.808594 22.101562 16.820312 21.945312 16.820312 C 21.789062 16.820312 21.613281 16.820312 21.457031 16.835938 C 21.285156 16.835938 21.125 16.851562 20.953125 16.851562 L 20.421875 16.878906 C 20.265625 16.894531 20.121094 16.894531 19.976562 16.90625 L 19.316406 16.964844 L 18.972656 17.007812 L 18.65625 17.039062 C 18.644531 17.039062 18.644531 17.039062 18.628906 17.023438 C 18.613281 16.996094 18.613281 16.964844 18.597656 16.921875 C 18.554688 16.765625 18.511719 16.621094 18.484375 16.460938 C 18.425781 16.246094 18.371094 16.042969 18.3125 15.8125 C 18.296875 15.785156 18.285156 15.742188 18.285156 15.710938 C 18.285156 15.710938 18.285156 15.710938 18.285156 15.699219 L 18.339844 15.667969 C 18.527344 15.613281 18.714844 15.570312 18.902344 15.523438 C 19.042969 15.496094 19.1875 15.46875 19.332031 15.453125 C 19.417969 15.4375 19.488281 15.425781 19.5625 15.425781 C 19.617188 15.410156 19.691406 15.410156 19.761719 15.394531 C 19.835938 15.382812 19.890625 15.382812 19.964844 15.367188 C 20.121094 15.351562 20.308594 15.339844 20.480469 15.308594 C 20.539062 15.308594 20.582031 15.296875 20.640625 15.296875 C 20.695312 15.296875 20.738281 15.296875 20.796875 15.28125 C 20.855469 15.28125 20.910156 15.265625 20.96875 15.265625 C 21.027344 15.265625 21.082031 15.265625 21.140625 15.25 C 21.542969 15.238281 21.960938 15.222656 22.363281 15.222656 C 22.605469 15.222656 22.863281 15.238281 23.109375 15.238281 C 23.238281 15.238281 23.367188 15.25 23.480469 15.25 C 23.609375 15.25 23.742188 15.265625 23.882812 15.265625 C 23.941406 15.265625 24.011719 15.28125 24.070312 15.28125 L 25.117188 15.351562 C 25.277344 15.367188 25.421875 15.382812 25.5625 15.394531 C 25.765625 15.425781 25.980469 15.453125 26.195312 15.480469 L 26.210938 15.480469 C 26.398438 15.511719 26.582031 15.554688 26.769531 15.597656 C 26.785156 15.597656 26.8125 15.613281 26.828125 15.613281 C 26.84375 15.613281 26.871094 15.625 26.886719 15.625 C 26.914062 15.65625 26.914062 15.65625 26.914062 15.667969 Z M 25.433594 15.007812 L 25.363281 15.019531 C 25.304688 15.019531 25.261719 15.019531 25.207031 15.007812 L 24.300781 14.933594 L 24.273438 14.933594 L 24.273438 14.890625 C 24.273438 14.746094 24.273438 14.605469 24.285156 14.472656 C 24.285156 14.417969 24.300781 14.375 24.300781 14.316406 C 24.300781 14.273438 24.300781 14.214844 24.316406 14.15625 C 24.328125 13.925781 24.328125 13.695312 24.328125 13.464844 C 24.328125 13.410156 24.34375 13.351562 24.34375 13.277344 L 24.34375 13.25 C 24.359375 13.179688 24.371094 13.105469 24.414062 13.046875 C 24.488281 12.917969 24.601562 12.804688 24.71875 12.730469 C 24.976562 12.558594 25.335938 12.617188 25.535156 12.832031 C 25.636719 12.960938 25.707031 13.089844 25.738281 13.234375 C 25.75 13.335938 25.75 13.4375 25.738281 13.539062 C 25.722656 13.625 25.707031 13.710938 25.679688 13.78125 C 25.664062 13.867188 25.648438 13.957031 25.621094 14.027344 C 25.59375 14.15625 25.578125 14.273438 25.550781 14.402344 C 25.519531 14.53125 25.492188 14.648438 25.476562 14.777344 L 25.433594 14.976562 C 25.433594 14.992188 25.433594 15.007812 25.433594 15.007812 Z M 27.847656 13.652344 C 27.847656 13.667969 27.832031 13.667969 27.832031 13.683594 C 27.691406 13.867188 27.558594 14.085938 27.445312 14.328125 C 27.300781 14.605469 27.171875 14.90625 27.058594 15.238281 C 27.058594 15.25 27.042969 15.265625 27.042969 15.28125 C 27.042969 15.296875 27.027344 15.308594 27.027344 15.324219 C 27.027344 15.324219 27.015625 15.324219 27.015625 15.324219 L 27 15.324219 L 26.46875 15.179688 L 26.453125 15.179688 C 26.453125 15.179688 26.441406 15.179688 26.441406 15.179688 L 26.425781 15.164062 C 26.425781 15.164062 26.425781 15.152344 26.441406 15.152344 C 26.441406 15.152344 26.441406 15.136719 26.453125 15.121094 C 26.554688 14.804688 26.699219 14.445312 26.871094 14.054688 C 26.886719 14.027344 26.898438 14 26.914062 13.96875 C 26.929688 13.957031 26.929688 13.941406 26.929688 13.925781 C 26.984375 13.8125 27.085938 13.726562 27.1875 13.667969 C 27.34375 13.582031 27.503906 13.550781 27.660156 13.566406 L 27.675781 13.566406 C 27.734375 13.582031 27.789062 13.582031 27.847656 13.609375 C 27.847656 13.625 27.847656 13.640625 27.847656 13.652344 C 27.847656 13.640625 27.847656 13.640625 27.847656 13.652344 Z M 23.582031 10.613281 C 23.582031 10.601562 23.582031 10.585938 23.582031 10.585938 C 23.597656 10.542969 23.597656 10.484375 23.597656 10.425781 C 23.597656 10.414062 23.597656 10.382812 23.597656 10.371094 C 23.597656 10.339844 23.597656 10.328125 23.597656 10.3125 C 23.597656 10.3125 23.597656 10.3125 23.609375 10.3125 C 23.699219 10.328125 23.796875 10.339844 23.914062 10.371094 C 24.585938 10.511719 25.261719 10.785156 25.867188 11.175781 C 26.671875 11.679688 27.332031 12.371094 27.804688 13.179688 C 27.820312 13.207031 27.832031 13.222656 27.832031 13.234375 C 27.832031 13.25 27.847656 13.25 27.847656 13.265625 C 27.847656 13.265625 27.847656 13.265625 27.847656 13.277344 C 27.761719 13.25 27.660156 13.25 27.558594 13.25 C 27.53125 13.25 27.503906 13.25 27.472656 13.25 L 27.429688 13.25 C 27.417969 13.25 27.402344 13.25 27.402344 13.234375 L 27.402344 13.222656 L 27.386719 13.207031 C 26.613281 11.96875 25.363281 11.0625 23.941406 10.730469 C 23.882812 10.714844 23.828125 10.699219 23.769531 10.6875 C 23.710938 10.671875 23.65625 10.65625 23.597656 10.65625 L 23.566406 10.65625 C 23.582031 10.644531 23.582031 10.628906 23.582031 10.613281 Z M 23.253906 12.257812 C 23.253906 12.242188 23.253906 12.226562 23.253906 12.199219 C 23.265625 12.039062 23.296875 11.894531 23.308594 11.753906 L 23.367188 11.363281 C 23.367188 11.320312 23.382812 11.292969 23.382812 11.246094 C 23.382812 11.203125 23.394531 11.175781 23.394531 11.132812 C 23.394531 11.117188 23.410156 11.089844 23.410156 11.074219 C 23.410156 11.0625 23.410156 11.03125 23.425781 11.015625 C 23.453125 11.015625 23.511719 11.015625 23.566406 11.03125 C 23.742188 11.0625 23.898438 11.105469 24.054688 11.148438 C 24.832031 11.363281 25.519531 11.753906 26.109375 12.285156 C 26.425781 12.585938 26.683594 12.875 26.898438 13.191406 C 26.929688 13.222656 26.957031 13.265625 26.972656 13.308594 L 26.984375 13.335938 C 27 13.351562 27 13.363281 27.015625 13.363281 C 27.015625 13.363281 26.984375 13.378906 26.972656 13.394531 L 26.941406 13.410156 C 26.757812 13.523438 26.613281 13.683594 26.527344 13.867188 C 26.46875 13.984375 26.425781 14.085938 26.382812 14.1875 C 26.269531 14.460938 26.152344 14.734375 26.050781 15.019531 C 26.039062 15.050781 26.023438 15.09375 26.007812 15.136719 L 25.78125 15.109375 C 25.78125 15.078125 25.792969 15.066406 25.792969 15.035156 C 25.808594 15.007812 25.808594 14.964844 25.808594 14.921875 C 25.878906 14.589844 25.953125 14.242188 26.023438 13.898438 L 26.082031 13.59375 C 26.125 13.308594 26.066406 13.035156 25.910156 12.789062 C 25.835938 12.6875 25.78125 12.617188 25.707031 12.558594 C 25.5625 12.429688 25.378906 12.34375 25.175781 12.3125 C 24.976562 12.285156 24.761719 12.328125 24.574219 12.441406 C 24.300781 12.585938 24.085938 12.847656 24 13.164062 C 23.984375 13.234375 23.96875 13.292969 23.96875 13.351562 C 23.96875 13.4375 23.957031 13.523438 23.957031 13.59375 C 23.957031 13.683594 23.957031 13.769531 23.941406 13.839844 L 23.914062 14.648438 C 23.914062 14.691406 23.914062 14.734375 23.914062 14.761719 C 23.914062 14.804688 23.914062 14.820312 23.914062 14.878906 C 23.914062 14.878906 23.914062 14.933594 23.898438 14.933594 L 23.871094 14.933594 L 23.65625 14.921875 C 23.65625 14.921875 23.65625 14.921875 23.65625 14.90625 L 23.65625 14.027344 C 23.65625 13.78125 23.65625 13.523438 23.625 13.265625 C 23.625 13.132812 23.609375 13.003906 23.566406 12.890625 C 23.511719 12.6875 23.410156 12.515625 23.28125 12.371094 L 23.265625 12.355469 C 23.253906 12.34375 23.253906 12.328125 23.253906 12.3125 C 23.265625 12.285156 23.265625 12.269531 23.253906 12.257812 Z M 22.578125 9.722656 C 22.679688 9.722656 22.777344 9.734375 22.851562 9.777344 C 22.851562 9.777344 22.863281 9.777344 22.863281 9.792969 C 22.878906 9.808594 22.894531 9.808594 22.921875 9.820312 C 23.222656 10.007812 23.324219 10.398438 23.136719 10.699219 C 23.066406 10.816406 22.964844 10.902344 22.851562 10.960938 C 22.765625 11.003906 22.664062 11.015625 22.5625 11.015625 C 22.503906 11.015625 22.460938 11.015625 22.417969 11.003906 C 22.277344 10.960938 22.148438 10.875 22.046875 10.742188 C 21.988281 10.65625 21.960938 10.585938 21.945312 10.527344 C 21.929688 10.46875 21.929688 10.414062 21.929688 10.371094 C 21.929688 10.007812 22.21875 9.722656 22.578125 9.722656 Z M 22.578125 9.722656 "/>
<path style=" stroke:none;fill-rule:nonzero;fill:rgb(53.72549%,26.27451%,3.921569%);fill-opacity:1;" d="M 21.125 35.71875 C 21.113281 35.71875 21.082031 35.703125 21.070312 35.703125 C 21.054688 35.703125 21.027344 35.6875 21.011719 35.6875 L 20.8125 35.644531 L 20.769531 35.644531 C 20.738281 35.644531 20.710938 35.671875 20.710938 35.703125 L 20.710938 35.730469 C 20.738281 35.789062 20.769531 35.816406 20.824219 35.847656 C 20.898438 35.902344 20.96875 35.933594 21.027344 35.960938 C 21.171875 36.019531 21.328125 36.0625 21.484375 36.0625 C 21.542969 36.0625 21.585938 36.0625 21.644531 36.046875 C 21.789062 36.019531 21.929688 35.992188 22.058594 35.960938 C 22.089844 35.960938 22.117188 35.949219 22.160156 35.949219 C 22.234375 35.933594 22.304688 35.917969 22.375 35.917969 C 22.578125 35.902344 22.734375 35.902344 22.878906 35.933594 C 22.964844 35.949219 23.035156 35.960938 23.121094 35.992188 C 23.210938 36.019531 23.28125 36.019531 23.367188 36.046875 C 23.46875 36.0625 23.554688 36.078125 23.640625 36.078125 C 23.753906 36.078125 23.855469 36.0625 23.957031 36.035156 C 24.070312 36.003906 24.1875 35.960938 24.285156 35.890625 C 24.34375 35.859375 24.371094 35.832031 24.402344 35.789062 C 24.414062 35.773438 24.414062 35.773438 24.414062 35.746094 L 24.429688 35.730469 L 24.429688 35.660156 L 24.371094 35.660156 C 24.316406 35.671875 24.242188 35.6875 24.171875 35.703125 C 24.085938 35.71875 23.984375 35.730469 23.898438 35.746094 C 23.753906 35.761719 23.609375 35.761719 23.46875 35.71875 L 22.734375 35.53125 C 22.632812 35.515625 22.535156 35.515625 22.433594 35.53125 C 22.363281 35.542969 22.277344 35.558594 22.203125 35.574219 C 22.117188 35.601562 22.015625 35.617188 21.929688 35.644531 C 21.84375 35.671875 21.746094 35.6875 21.660156 35.71875 C 21.515625 35.746094 21.3125 35.746094 21.125 35.71875 Z M 21.125 35.71875 "/>
<path style=" stroke:none;fill-rule:nonzero;fill:rgb(53.72549%,26.27451%,3.921569%);fill-opacity:1;" d="M 17.625 34.507812 C 17.667969 34.550781 17.722656 34.609375 17.78125 34.636719 C 17.910156 34.707031 18.039062 34.765625 18.183594 34.796875 C 18.3125 34.808594 18.414062 34.824219 18.511719 34.808594 C 18.597656 34.808594 18.671875 34.796875 18.757812 34.78125 C 18.800781 34.765625 18.84375 34.765625 18.886719 34.765625 C 19.058594 34.738281 19.230469 34.695312 19.402344 34.664062 C 19.519531 34.652344 19.632812 34.636719 19.71875 34.652344 C 19.820312 34.664062 19.921875 34.679688 20.019531 34.695312 C 20.105469 34.707031 20.207031 34.738281 20.292969 34.753906 C 20.367188 34.765625 20.453125 34.78125 20.523438 34.796875 C 20.609375 34.824219 20.695312 34.839844 20.8125 34.839844 C 20.898438 34.839844 20.984375 34.824219 21.070312 34.824219 L 21.097656 34.824219 C 21.257812 34.796875 21.414062 34.738281 21.558594 34.636719 C 21.601562 34.609375 21.628906 34.578125 21.660156 34.535156 C 21.671875 34.523438 21.671875 34.523438 21.671875 34.492188 L 21.6875 34.476562 L 21.6875 34.421875 L 21.671875 34.40625 C 21.660156 34.390625 21.660156 34.390625 21.628906 34.390625 C 21.601562 34.390625 21.570312 34.390625 21.542969 34.40625 C 21.414062 34.449219 21.300781 34.464844 21.183594 34.492188 C 21.039062 34.523438 20.898438 34.523438 20.753906 34.492188 L 20.667969 34.476562 C 20.507812 34.449219 20.367188 34.421875 20.207031 34.378906 C 20.09375 34.347656 19.949219 34.304688 19.804688 34.277344 C 19.707031 34.246094 19.589844 34.246094 19.476562 34.261719 C 19.375 34.277344 19.273438 34.304688 19.175781 34.320312 C 18.988281 34.363281 18.800781 34.40625 18.597656 34.464844 C 18.398438 34.523438 18.167969 34.523438 17.96875 34.464844 C 17.867188 34.433594 17.78125 34.421875 17.710938 34.40625 C 17.679688 34.390625 17.652344 34.390625 17.609375 34.390625 C 17.59375 34.390625 17.566406 34.390625 17.566406 34.449219 L 17.566406 34.464844 C 17.609375 34.476562 17.609375 34.492188 17.625 34.507812 Z M 17.625 34.507812 "/>
<path style=" stroke:none;fill-rule:nonzero;fill:rgb(53.72549%,26.27451%,3.921569%);fill-opacity:1;" d="M 23.667969 34.566406 C 23.667969 34.566406 23.683594 34.578125 23.683594 34.578125 C 23.710938 34.621094 23.769531 34.664062 23.828125 34.695312 C 23.882812 34.738281 23.957031 34.765625 24.027344 34.796875 C 24.15625 34.851562 24.300781 34.882812 24.457031 34.882812 C 24.5 34.882812 24.542969 34.882812 24.585938 34.867188 C 24.617188 34.867188 24.644531 34.851562 24.675781 34.851562 C 24.703125 34.851562 24.730469 34.839844 24.761719 34.839844 C 24.847656 34.824219 24.933594 34.796875 25.03125 34.78125 C 25.117188 34.765625 25.207031 34.738281 25.304688 34.722656 C 25.507812 34.664062 25.738281 34.664062 25.964844 34.707031 C 26.066406 34.738281 26.167969 34.753906 26.269531 34.765625 C 26.3125 34.78125 26.367188 34.78125 26.410156 34.796875 L 26.441406 34.796875 C 26.539062 34.808594 26.640625 34.824219 26.742188 34.824219 C 26.84375 34.824219 26.941406 34.808594 27.042969 34.78125 C 27.171875 34.753906 27.316406 34.695312 27.445312 34.609375 C 27.503906 34.578125 27.546875 34.523438 27.601562 34.464844 L 27.617188 34.449219 C 27.617188 34.449219 27.632812 34.433594 27.632812 34.421875 L 27.632812 34.40625 C 27.632812 34.390625 27.617188 34.378906 27.589844 34.378906 C 27.558594 34.378906 27.53125 34.378906 27.503906 34.390625 C 27.359375 34.433594 27.214844 34.464844 27.070312 34.492188 C 26.984375 34.507812 26.898438 34.507812 26.8125 34.492188 C 26.683594 34.476562 26.554688 34.449219 26.441406 34.433594 L 25.921875 34.320312 C 25.722656 34.277344 25.550781 34.292969 25.378906 34.335938 C 25.292969 34.363281 25.207031 34.378906 25.117188 34.40625 C 25.03125 34.433594 24.945312 34.449219 24.859375 34.476562 C 24.761719 34.507812 24.644531 34.535156 24.53125 34.566406 C 24.414062 34.578125 24.300781 34.578125 24.1875 34.566406 L 23.871094 34.507812 C 23.828125 34.492188 23.796875 34.492188 23.753906 34.492188 C 23.726562 34.492188 23.699219 34.523438 23.699219 34.550781 Z M 23.667969 34.566406 "/>
<path style=" stroke:none;fill-rule:nonzero;fill:rgb(53.72549%,26.27451%,3.921569%);fill-opacity:1;" d="M 18.355469 25.808594 C 18.511719 26.023438 18.757812 26.152344 19.015625 26.152344 C 19.203125 26.152344 19.390625 26.097656 19.53125 25.980469 C 19.734375 25.835938 19.835938 25.621094 19.847656 25.375 C 19.847656 25.261719 19.835938 25.132812 19.777344 25.03125 C 19.71875 24.902344 19.617188 24.785156 19.488281 24.726562 C 19.359375 24.671875 19.21875 24.640625 19.074219 24.671875 C 18.914062 24.683594 18.757812 24.785156 18.65625 24.945312 C 18.644531 24.957031 18.628906 24.972656 18.613281 25 C 18.613281 25.015625 18.597656 25.015625 18.585938 25.015625 C 18.585938 25 18.585938 24.988281 18.585938 24.957031 C 18.597656 24.84375 18.613281 24.714844 18.644531 24.585938 C 18.699219 24.339844 18.828125 24.09375 18.988281 23.894531 C 19.058594 23.804688 19.160156 23.71875 19.261719 23.648438 L 19.304688 23.605469 L 19.316406 23.589844 C 19.332031 23.574219 19.332031 23.546875 19.316406 23.53125 C 19.304688 23.519531 19.304688 23.519531 19.289062 23.519531 C 19.273438 23.519531 19.261719 23.519531 19.246094 23.53125 C 18.972656 23.648438 18.742188 23.820312 18.554688 24.035156 C 18.242188 24.410156 18.109375 24.886719 18.183594 25.363281 C 18.210938 25.519531 18.269531 25.679688 18.355469 25.808594 Z M 18.644531 25.304688 C 18.65625 25.203125 18.699219 25.101562 18.757812 25.015625 C 18.785156 24.972656 18.816406 24.929688 18.859375 24.902344 C 18.988281 24.816406 19.160156 24.816406 19.273438 24.914062 C 19.332031 24.957031 19.375 25.03125 19.402344 25.101562 C 19.445312 25.1875 19.460938 25.277344 19.460938 25.375 L 19.460938 25.417969 C 19.476562 25.519531 19.445312 25.636719 19.417969 25.707031 C 19.390625 25.765625 19.359375 25.824219 19.304688 25.867188 C 19.246094 25.921875 19.160156 25.953125 19.085938 25.953125 C 19 25.96875 18.914062 25.921875 18.84375 25.867188 C 18.800781 25.835938 18.785156 25.808594 18.757812 25.765625 C 18.699219 25.679688 18.644531 25.5625 18.644531 25.449219 C 18.628906 25.40625 18.628906 25.363281 18.644531 25.304688 Z M 18.644531 25.304688 "/>
<path style=" stroke:none;fill-rule:nonzero;fill:rgb(53.72549%,26.27451%,3.921569%);fill-opacity:1;" d="M 16.789062 24.152344 C 16.804688 24.152344 16.820312 24.136719 16.832031 24.136719 L 17.0625 24.066406 L 17.121094 24.050781 C 17.136719 24.035156 17.148438 24.066406 17.148438 24.066406 C 17.164062 24.109375 17.164062 24.125 17.164062 24.167969 L 17.164062 25.878906 C 17.164062 25.9375 17.136719 25.996094 17.105469 26.039062 C 17.105469 26.039062 17.089844 26.054688 17.089844 26.054688 C 17.089844 26.066406 17.105469 26.082031 17.121094 26.082031 L 17.625 26.082031 C 17.636719 26.082031 17.652344 26.066406 17.636719 26.054688 C 17.625 26.039062 17.625 26.039062 17.625 26.023438 C 17.578125 25.980469 17.578125 25.9375 17.578125 25.894531 L 17.578125 25.867188 C 17.578125 25.59375 17.566406 25.332031 17.566406 25.074219 L 17.566406 24.742188 C 17.578125 24.496094 17.578125 24.265625 17.578125 24.035156 L 17.578125 23.589844 C 17.578125 23.574219 17.566406 23.5625 17.566406 23.546875 C 17.566406 23.53125 17.550781 23.53125 17.535156 23.53125 C 17.507812 23.546875 17.492188 23.574219 17.464844 23.589844 C 17.394531 23.648438 17.320312 23.71875 17.25 23.777344 C 17.164062 23.835938 17.0625 23.921875 16.976562 23.980469 C 16.917969 24.023438 16.875 24.050781 16.820312 24.09375 C 16.804688 24.109375 16.804688 24.109375 16.789062 24.125 C 16.777344 24.125 16.789062 24.152344 16.789062 24.152344 Z M 16.789062 24.152344 "/>
<path style=" stroke:none;fill-rule:nonzero;fill:rgb(53.72549%,26.27451%,3.921569%);fill-opacity:1;" d="M 27.085938 24.871094 C 27.085938 24.871094 27.113281 24.886719 27.144531 24.859375 L 27.1875 24.816406 C 27.273438 24.726562 27.375 24.671875 27.488281 24.65625 C 27.574219 24.640625 27.660156 24.640625 27.761719 24.65625 C 27.933594 24.683594 28.078125 24.816406 28.132812 24.972656 C 28.148438 25.015625 28.164062 25.074219 28.164062 25.132812 C 28.179688 25.21875 28.164062 25.320312 28.148438 25.40625 C 28.089844 25.691406 27.875 25.921875 27.601562 26.011719 C 27.488281 26.054688 27.359375 26.054688 27.230469 26.039062 L 27.171875 26.023438 C 27.15625 26.039062 27.15625 26.039062 27.15625 26.054688 C 27.171875 26.066406 27.171875 26.097656 27.171875 26.109375 L 27.203125 26.140625 C 27.214844 26.140625 27.230469 26.152344 27.246094 26.152344 C 27.402344 26.167969 27.546875 26.167969 27.691406 26.140625 C 28.003906 26.082031 28.292969 25.867188 28.449219 25.5625 C 28.566406 25.347656 28.59375 25.089844 28.507812 24.84375 C 28.464844 24.699219 28.363281 24.570312 28.222656 24.496094 C 28.035156 24.382812 27.804688 24.355469 27.589844 24.425781 C 27.472656 24.453125 27.375 24.511719 27.289062 24.585938 C 27.257812 24.597656 27.246094 24.628906 27.230469 24.640625 L 27.214844 24.65625 C 27.203125 24.671875 27.171875 24.683594 27.171875 24.640625 C 27.1875 24.496094 27.203125 24.222656 27.214844 24.066406 C 27.214844 24.050781 27.214844 24.023438 27.230469 24.007812 C 27.246094 23.992188 27.257812 23.964844 27.273438 23.964844 L 28.25 23.964844 C 28.265625 23.964844 28.277344 23.964844 28.292969 23.90625 C 28.308594 23.804688 28.335938 23.707031 28.351562 23.621094 C 28.363281 23.574219 28.335938 23.574219 28.308594 23.574219 C 28.234375 23.589844 28.164062 23.589844 28.089844 23.589844 L 27.257812 23.589844 C 27.113281 23.589844 27.113281 23.589844 27.113281 23.734375 C 27.101562 23.851562 27.101562 23.964844 27.085938 24.082031 L 27.042969 24.683594 C 27.042969 24.742188 27.027344 24.769531 27.027344 24.828125 C 27.042969 24.859375 27.042969 24.871094 27.085938 24.871094 Z M 27.085938 24.871094 "/>
<path style=" stroke:none;fill-rule:nonzero;fill:rgb(53.72549%,26.27451%,3.921569%);fill-opacity:1;" d="M 25.207031 23.992188 C 25.21875 24.007812 25.234375 24.007812 25.25 24.007812 L 25.347656 23.921875 C 25.40625 23.878906 25.476562 23.835938 25.550781 23.804688 C 25.679688 23.761719 25.808594 23.75 25.9375 23.792969 C 26.050781 23.820312 26.152344 23.9375 26.152344 24.050781 C 26.183594 24.195312 26.136719 24.324219 26.050781 24.425781 C 26.007812 24.46875 25.980469 24.511719 25.9375 24.539062 C 25.867188 24.597656 25.792969 24.628906 25.707031 24.671875 L 25.59375 24.714844 C 25.578125 24.726562 25.5625 24.742188 25.578125 24.757812 C 25.59375 24.769531 25.59375 24.785156 25.59375 24.800781 C 25.605469 24.816406 25.636719 24.828125 25.648438 24.816406 C 25.695312 24.800781 25.722656 24.785156 25.765625 24.769531 C 25.851562 24.757812 25.921875 24.757812 26.007812 24.769531 C 26.152344 24.785156 26.28125 24.886719 26.339844 25.03125 C 26.355469 25.074219 26.367188 25.132812 26.382812 25.175781 C 26.398438 25.246094 26.398438 25.332031 26.382812 25.40625 C 26.367188 25.605469 26.253906 25.78125 26.082031 25.878906 C 26.023438 25.921875 25.964844 25.9375 25.894531 25.96875 C 25.738281 26.011719 25.550781 26.023438 25.363281 25.996094 L 25.25 25.980469 C 25.234375 25.980469 25.234375 25.996094 25.234375 25.996094 L 25.234375 26.054688 C 25.234375 26.066406 25.25 26.097656 25.277344 26.097656 C 25.320312 26.109375 25.363281 26.109375 25.421875 26.125 C 25.59375 26.140625 25.78125 26.125 25.953125 26.082031 C 26.09375 26.039062 26.253906 25.96875 26.367188 25.878906 C 26.484375 25.792969 26.582031 25.707031 26.65625 25.578125 C 26.785156 25.375 26.8125 25.132812 26.726562 24.914062 C 26.683594 24.785156 26.597656 24.671875 26.484375 24.613281 C 26.425781 24.570312 26.355469 24.554688 26.28125 24.539062 C 26.238281 24.527344 26.183594 24.511719 26.136719 24.496094 L 26.125 24.484375 L 26.210938 24.425781 C 26.28125 24.382812 26.339844 24.3125 26.398438 24.253906 C 26.484375 24.136719 26.511719 24.007812 26.496094 23.863281 C 26.484375 23.761719 26.441406 23.664062 26.355469 23.621094 C 26.3125 23.589844 26.269531 23.5625 26.210938 23.546875 C 26.066406 23.503906 25.894531 23.488281 25.75 23.53125 C 25.535156 23.589844 25.335938 23.734375 25.191406 23.90625 C 25.175781 23.949219 25.175781 23.964844 25.207031 23.992188 Z M 25.207031 23.992188 "/>
<path style=" stroke:none;fill-rule:nonzero;fill:rgb(53.72549%,26.27451%,3.921569%);fill-opacity:1;" d="M 15.8125 17.960938 L 15.8125 32.347656 C 15.8125 34.476562 17.550781 36.089844 18.714844 36.640625 C 20.28125 37.386719 20.925781 37.660156 22.003906 38.136719 L 22.492188 38.351562 C 22.535156 38.367188 22.589844 38.367188 22.632812 38.351562 L 23.007812 38.195312 C 24.300781 37.632812 24.6875 37.460938 26.398438 36.640625 C 27.246094 36.234375 28.394531 35.285156 28.953125 33.960938 C 29.167969 33.457031 29.296875 32.910156 29.296875 32.304688 L 29.296875 17.917969 C 29.296875 17.859375 29.253906 17.816406 29.210938 17.816406 L 15.914062 17.816406 C 15.855469 17.828125 15.8125 17.871094 15.8125 17.960938 Z M 28.96875 27.667969 L 28.96875 28.976562 C 28.953125 28.992188 28.9375 29.003906 28.9375 29.003906 C 28.867188 29.050781 28.652344 29.207031 28.578125 29.25 L 27.332031 30.101562 L 27.273438 30.128906 C 27.257812 30.144531 27.246094 30.128906 27.230469 30.113281 C 27.214844 30.085938 27.203125 30.058594 27.1875 30.015625 C 27.144531 29.914062 27.128906 29.871094 27.070312 29.769531 C 26.914062 29.464844 26.714844 29.222656 26.410156 29.0625 C 26.355469 29.035156 26.324219 29.035156 26.425781 28.90625 L 27.789062 27.578125 L 28.894531 27.578125 C 28.925781 27.578125 28.953125 27.609375 28.953125 27.636719 L 28.953125 27.667969 Z M 24.773438 32.792969 C 24.746094 32.765625 24.71875 32.765625 24.675781 32.765625 C 24.628906 32.765625 24.601562 32.777344 24.558594 32.792969 L 24.273438 32.953125 L 23.769531 33.210938 C 23.640625 33.269531 23.523438 33.296875 23.394531 33.296875 L 23.265625 33.28125 C 23.253906 33.28125 23.253906 33.269531 23.253906 33.269531 C 23.238281 33.238281 23.28125 33.226562 23.28125 33.226562 C 23.46875 33.125 23.640625 33.007812 23.828125 32.894531 C 23.914062 32.835938 24.011719 32.777344 24.097656 32.707031 C 24.1875 32.648438 24.257812 32.578125 24.328125 32.535156 C 24.371094 32.492188 24.414062 32.449219 24.445312 32.390625 C 24.457031 32.375 24.445312 32.347656 24.429688 32.332031 C 24.402344 32.304688 24.34375 32.289062 24.316406 32.316406 C 24.273438 32.347656 24.230469 32.375 24.171875 32.40625 L 23.222656 33.007812 C 23.167969 33.039062 23.109375 33.082031 23.050781 33.109375 C 22.921875 33.167969 22.691406 33.210938 22.605469 33.167969 C 22.578125 33.152344 22.621094 33.125 22.632812 33.109375 C 22.722656 33.066406 22.820312 33.007812 22.921875 32.964844 C 23.050781 32.878906 23.121094 32.820312 23.195312 32.765625 C 23.296875 32.691406 23.382812 32.621094 23.46875 32.546875 C 23.625 32.40625 23.769531 32.246094 23.898438 32.074219 C 23.925781 32.03125 23.941406 32 23.96875 31.957031 C 23.984375 31.945312 23.984375 31.902344 23.96875 31.886719 C 23.941406 31.855469 23.898438 31.855469 23.855469 31.886719 C 23.8125 31.914062 23.769531 31.957031 23.710938 31.988281 L 23.109375 32.519531 C 23.078125 32.546875 23.035156 32.578125 22.992188 32.605469 C 22.90625 32.679688 22.777344 32.765625 22.679688 32.808594 L 22.277344 33.007812 C 22.101562 33.097656 22.015625 33.125 21.972656 33.140625 C 21.929688 33.152344 21.84375 33.152344 21.789062 33.152344 C 21.773438 33.152344 21.746094 33.152344 21.730469 33.140625 C 21.730469 33.140625 21.714844 33.125 21.730469 33.109375 C 21.746094 33.097656 21.757812 33.082031 21.757812 33.066406 C 21.832031 33.007812 21.902344 32.953125 21.972656 32.894531 C 22.175781 32.765625 22.375 32.605469 22.5625 32.460938 C 22.949219 32.144531 23.296875 31.8125 23.609375 31.453125 C 23.683594 31.367188 23.683594 31.367188 23.753906 31.28125 C 23.839844 31.179688 23.957031 31.023438 23.957031 31.023438 C 24.027344 30.921875 23.941406 30.847656 23.855469 30.847656 C 23.839844 30.847656 23.496094 30.949219 23.324219 31.023438 C 23.121094 31.109375 22.964844 31.265625 22.722656 31.425781 C 22.648438 31.46875 22.476562 31.582031 22.40625 31.613281 C 22.148438 31.714844 21.972656 31.582031 22.089844 31.484375 C 22.089844 31.484375 22.390625 31.210938 22.503906 31.109375 C 22.679688 30.980469 23.136719 30.488281 23.582031 30.171875 C 23.726562 30.070312 23.785156 30.058594 23.941406 30.027344 C 24.703125 29.925781 25.335938 29.710938 25.664062 29.496094 C 25.75 29.4375 25.824219 29.378906 25.894531 29.324219 C 25.921875 29.292969 25.964844 29.265625 26.007812 29.222656 C 26.023438 29.207031 26.066406 29.191406 26.09375 29.207031 C 26.125 29.222656 26.152344 29.234375 26.183594 29.234375 C 26.398438 29.351562 26.582031 29.496094 26.726562 29.695312 C 26.828125 29.839844 26.914062 30 26.972656 30.15625 C 26.984375 30.171875 27 30.199219 27 30.230469 C 27.015625 30.300781 27 30.359375 26.941406 30.386719 C 26.613281 30.632812 26.324219 30.949219 26.109375 31.296875 C 26.007812 31.46875 25.910156 31.640625 25.808594 31.8125 L 25.378906 32.519531 L 25.261719 32.691406 C 25.164062 32.867188 25.03125 33.007812 24.847656 33.082031 C 24.71875 33.140625 24.644531 33.183594 24.53125 33.226562 C 24.457031 33.253906 24.371094 33.28125 24.285156 33.3125 C 24.242188 33.328125 24.070312 33.355469 24.054688 33.3125 C 24.042969 33.28125 24.085938 33.269531 24.113281 33.253906 C 24.257812 33.183594 24.414062 33.082031 24.558594 33.007812 C 24.675781 32.953125 24.703125 32.921875 24.773438 32.867188 C 24.789062 32.867188 24.816406 32.820312 24.773438 32.792969 Z M 20.855469 32.777344 L 20.292969 29.539062 L 24.585938 28.789062 C 24.601562 28.789062 24.617188 28.804688 24.628906 28.820312 L 24.804688 29.597656 C 24.746094 29.609375 24.6875 29.625 24.628906 29.640625 C 24.457031 29.667969 23.882812 29.753906 23.796875 29.785156 C 23.625 29.828125 23.554688 29.882812 23.496094 29.914062 C 23.28125 30.042969 22.863281 30.429688 22.664062 30.589844 C 22.605469 30.648438 22.476562 30.792969 22.40625 30.847656 C 22.203125 31.035156 21.875 31.339844 21.832031 31.394531 C 21.714844 31.554688 21.800781 31.699219 21.917969 31.8125 C 22.03125 31.929688 22.261719 31.914062 22.289062 31.914062 C 22.375 31.902344 22.449219 31.886719 22.535156 31.855469 C 22.664062 31.800781 23.179688 31.453125 23.324219 31.351562 L 23.394531 31.308594 C 23.425781 31.296875 23.4375 31.308594 23.410156 31.339844 C 23.382812 31.367188 23.367188 31.394531 23.367188 31.394531 L 23.324219 31.453125 C 23.167969 31.625 22.992188 31.785156 22.820312 31.945312 C 22.546875 32.203125 22.261719 32.433594 21.960938 32.648438 C 21.859375 32.722656 21.757812 32.792969 21.660156 32.878906 L 20.824219 33.039062 C 20.855469 32.9375 20.867188 32.851562 20.855469 32.777344 Z M 20.507812 32.980469 C 20.480469 33.023438 20.421875 33.066406 20.367188 33.066406 L 20.335938 33.066406 C 20.222656 33.082031 20.105469 33.007812 20.078125 32.894531 L 19.5625 29.914062 C 19.605469 29.925781 19.632812 29.941406 19.675781 29.941406 C 19.707031 29.941406 19.734375 29.941406 19.761719 29.941406 C 19.863281 29.925781 19.949219 29.898438 20.019531 29.8125 L 20.539062 32.808594 C 20.550781 32.878906 20.539062 32.9375 20.507812 32.980469 Z M 21.730469 25.046875 C 21.875 25.117188 22.089844 25.144531 22.261719 25.046875 C 22.363281 25 22.417969 24.929688 22.417969 24.828125 C 22.417969 24.785156 22.40625 24.742188 22.363281 24.714844 L 22.277344 24.671875 C 22.246094 24.65625 22.21875 24.613281 22.234375 24.554688 C 22.234375 24.527344 22.246094 24.484375 22.261719 24.453125 C 22.320312 24.296875 22.433594 24.152344 22.578125 24.035156 L 22.894531 24.410156 C 22.90625 24.453125 22.921875 24.496094 22.921875 24.539062 C 22.9375 24.597656 22.90625 24.640625 22.878906 24.671875 C 22.863281 24.671875 22.863281 24.671875 22.863281 24.683594 C 22.851562 24.683594 22.808594 24.714844 22.792969 24.714844 C 22.734375 24.757812 22.722656 24.800781 22.734375 24.871094 C 22.75 24.945312 22.792969 25 22.863281 25.046875 C 23.050781 25.160156 23.265625 25.132812 23.425781 25.046875 C 23.4375 25.03125 23.480469 25.015625 23.496094 24.988281 C 23.539062 24.945312 23.566406 24.902344 23.566406 24.84375 C 23.566406 24.828125 23.566406 24.800781 23.566406 24.785156 C 23.566406 24.769531 23.566406 24.757812 23.566406 24.757812 C 23.566406 24.714844 23.582031 24.671875 23.597656 24.628906 C 23.625 24.554688 23.667969 24.511719 23.742188 24.46875 C 23.828125 24.425781 23.914062 24.410156 24.011719 24.441406 C 24.027344 24.441406 24.027344 24.441406 24.027344 24.441406 L 24.011719 24.453125 C 23.957031 24.484375 23.898438 24.539062 23.855469 24.597656 C 23.839844 24.613281 23.828125 24.628906 23.828125 24.640625 C 23.828125 24.65625 23.8125 24.671875 23.796875 24.699219 C 23.753906 24.800781 23.726562 24.914062 23.710938 25.03125 C 23.710938 25.089844 23.699219 25.1875 23.699219 25.261719 L 23.640625 25.261719 C 23.382812 25.246094 23.167969 25.230469 22.9375 25.230469 C 22.792969 25.230469 22.648438 25.21875 22.519531 25.21875 L 22.492188 25.21875 L 21.832031 25.246094 C 21.832031 25.246094 21.527344 25.261719 21.484375 25.261719 C 21.441406 25.261719 21.441406 25.246094 21.441406 25.230469 C 21.441406 25.1875 21.441406 25.144531 21.429688 25.101562 C 21.414062 25.015625 21.398438 24.929688 21.386719 24.84375 L 21.371094 24.816406 C 21.355469 24.769531 21.34375 24.714844 21.3125 24.671875 C 21.285156 24.585938 21.214844 24.496094 21.125 24.453125 C 21.214844 24.441406 21.300781 24.453125 21.386719 24.484375 C 21.484375 24.527344 21.585938 24.628906 21.601562 24.714844 C 21.601562 24.800781 21.585938 24.800781 21.585938 24.859375 C 21.585938 24.945312 21.703125 25.015625 21.730469 25.046875 Z M 23.683594 25.605469 C 23.683594 25.679688 23.683594 25.679688 23.625 25.679688 C 23.566406 25.679688 23.367188 25.648438 23.253906 25.648438 C 22.75 25.621094 22.503906 25.621094 22.175781 25.636719 C 21.789062 25.648438 21.558594 25.679688 21.558594 25.679688 L 21.484375 25.679688 C 21.457031 25.679688 21.457031 25.636719 21.457031 25.605469 C 21.457031 25.578125 21.457031 25.535156 21.457031 25.507812 C 21.457031 25.492188 21.472656 25.476562 21.484375 25.476562 C 21.5 25.476562 21.859375 25.460938 21.859375 25.460938 C 21.917969 25.460938 21.972656 25.449219 22.015625 25.449219 C 22.132812 25.433594 22.175781 25.433594 22.390625 25.433594 C 22.734375 25.433594 23.066406 25.433594 23.253906 25.449219 C 23.4375 25.460938 23.640625 25.476562 23.640625 25.476562 C 23.667969 25.476562 23.683594 25.492188 23.683594 25.492188 C 23.683594 25.492188 23.683594 25.59375 23.683594 25.605469 Z M 22.578125 25.910156 C 24.199219 25.910156 24.71875 26.355469 25.132812 26.671875 C 25.21875 26.730469 25.277344 26.800781 25.347656 26.859375 C 25.390625 26.886719 25.421875 26.902344 25.492188 26.886719 C 26.183594 26.644531 27.042969 26.832031 27.488281 27.234375 C 25.707031 27.234375 19.5625 27.234375 17.679688 27.234375 C 18.140625 26.832031 19.015625 26.644531 19.707031 26.886719 C 19.777344 26.902344 19.804688 26.902344 19.847656 26.859375 C 19.921875 26.800781 19.992188 26.730469 20.0625 26.671875 C 20.464844 26.355469 20.953125 25.910156 22.578125 25.910156 Z M 23.339844 18.621094 C 23.339844 18.507812 23.351562 18.40625 23.394531 18.320312 C 23.394531 18.304688 23.410156 18.289062 23.410156 18.289062 C 23.410156 18.277344 23.425781 18.261719 23.425781 18.261719 L 23.425781 18.246094 C 23.4375 18.21875 23.453125 18.191406 23.453125 18.191406 L 28.808594 18.191406 C 28.894531 18.191406 28.953125 18.246094 28.953125 18.332031 L 28.953125 27.175781 C 28.953125 27.234375 28.9375 27.25 28.851562 27.25 L 27.917969 27.25 C 27.375 26.628906 26.398438 26.3125 25.507812 26.570312 C 25.476562 26.585938 25.449219 26.570312 25.421875 26.558594 C 25.390625 26.527344 25.347656 26.484375 25.304688 26.457031 C 24.976562 26.195312 24.617188 25.921875 23.925781 25.75 C 23.925781 25.722656 23.925781 25.707031 23.925781 25.691406 L 23.925781 25.160156 C 23.925781 25.046875 23.941406 24.929688 23.984375 24.828125 C 24 24.785156 24.011719 24.742188 24.027344 24.714844 C 24.027344 24.714844 24.042969 24.699219 24.042969 24.683594 C 24.042969 24.683594 24.054688 24.671875 24.054688 24.671875 C 24.070312 24.65625 24.085938 24.65625 24.097656 24.65625 L 24.15625 24.683594 C 24.1875 24.699219 24.199219 24.714844 24.214844 24.714844 C 24.230469 24.726562 24.257812 24.726562 24.273438 24.726562 C 24.34375 24.726562 24.402344 24.671875 24.402344 24.597656 C 24.402344 24.539062 24.402344 24.496094 24.386719 24.441406 C 24.34375 24.3125 24.257812 24.195312 24.128906 24.152344 C 23.984375 24.09375 23.8125 24.082031 23.640625 24.136719 C 23.496094 24.179688 23.382812 24.28125 23.308594 24.398438 C 23.296875 24.410156 23.308594 24.425781 23.296875 24.441406 L 23.296875 23.230469 C 23.308594 23.230469 24.472656 23.230469 24.472656 23.230469 C 24.675781 23.230469 24.816406 23.316406 24.945312 23.402344 C 24.976562 23.433594 25.019531 23.460938 25.0625 23.476562 C 25.074219 23.488281 25.132812 23.519531 25.148438 23.519531 C 25.164062 23.519531 25.175781 23.503906 25.191406 23.503906 C 25.207031 23.488281 25.207031 23.460938 25.207031 23.445312 L 25.207031 23.359375 C 25.21875 22.839844 25.207031 21.949219 25.207031 21.589844 L 25.207031 21.574219 C 25.191406 21.546875 25.175781 21.546875 25.164062 21.53125 C 25.148438 21.53125 25.132812 21.515625 25.105469 21.546875 C 25.105469 21.546875 24.988281 21.632812 24.960938 21.644531 C 24.832031 21.734375 24.6875 21.777344 24.53125 21.789062 C 24.445312 21.804688 24.34375 21.804688 24.257812 21.804688 L 23.523438 21.804688 C 23.496094 21.804688 23.382812 21.804688 23.351562 21.804688 C 23.324219 21.804688 23.308594 21.761719 23.308594 21.71875 L 23.308594 21.011719 C 23.308594 20.96875 23.324219 20.96875 23.351562 20.96875 L 23.96875 20.96875 C 24.128906 20.96875 24.285156 21.011719 24.429688 21.097656 C 24.472656 21.128906 24.515625 21.15625 24.574219 21.171875 L 24.601562 21.183594 L 24.617188 21.199219 C 24.644531 21.214844 24.675781 21.183594 24.6875 21.15625 C 24.703125 21.128906 24.703125 21.070312 24.703125 21.054688 L 24.703125 19.355469 C 24.703125 19.3125 24.675781 19.296875 24.644531 19.296875 C 24.628906 19.296875 24.601562 19.3125 24.601562 19.3125 C 24.558594 19.328125 24.5 19.355469 24.457031 19.386719 C 24.34375 19.472656 24.199219 19.484375 24.054688 19.5 C 23.914062 19.515625 23.785156 19.515625 23.640625 19.515625 C 23.640625 19.515625 23.425781 19.515625 23.382812 19.515625 C 23.339844 19.515625 23.339844 19.5 23.339844 19.457031 Z M 22.046875 18.21875 C 22.046875 18.21875 22.03125 18.191406 22.03125 18.175781 L 23.078125 18.175781 C 23.078125 18.191406 23.066406 18.21875 23.066406 18.234375 C 23.035156 18.363281 23.007812 18.507812 23.007812 18.738281 L 23.007812 19.671875 C 23.007812 19.6875 23.007812 19.714844 23.035156 19.746094 C 23.066406 19.773438 23.09375 19.773438 23.167969 19.773438 L 23.914062 19.773438 C 24 19.789062 24.085938 19.773438 24.199219 19.757812 C 24.257812 19.746094 24.300781 19.746094 24.359375 19.730469 C 24.371094 19.730469 24.371094 19.730469 24.386719 19.730469 C 24.402344 19.730469 24.402344 19.730469 24.402344 19.730469 L 24.402344 20.738281 C 24.386719 20.738281 24.386719 20.738281 24.386719 20.738281 C 24.371094 20.738281 24.371094 20.738281 24.359375 20.722656 C 24.230469 20.679688 24.113281 20.667969 23.984375 20.667969 L 23.152344 20.667969 C 23.050781 20.679688 23.035156 20.695312 23.035156 20.8125 L 23.035156 22.019531 C 23.035156 22.050781 23.066406 22.078125 23.09375 22.078125 L 23.855469 22.078125 L 24.488281 22.0625 C 24.617188 22.078125 24.730469 22.050781 24.859375 22.019531 C 24.890625 22.007812 24.890625 22.007812 24.917969 22.007812 C 24.933594 21.992188 24.945312 22.007812 24.945312 22.019531 C 24.945312 22.035156 24.945312 22.050781 24.945312 22.078125 L 24.945312 23.015625 C 24.945312 23.027344 24.933594 23.027344 24.933594 23.027344 C 24.917969 23.027344 24.917969 23.027344 24.902344 23.015625 L 24.890625 23.015625 C 24.761719 22.972656 24.628906 22.957031 24.5 22.957031 L 23.210938 22.957031 C 23.195312 22.957031 23.167969 22.957031 23.136719 22.957031 C 23.066406 22.957031 23.035156 23 23.035156 23.027344 C 23.035156 23.058594 23.035156 23.085938 23.035156 23.128906 L 23.035156 24.195312 C 23.035156 24.195312 23.023438 24.125 22.992188 24.066406 C 22.964844 24.007812 22.820312 23.863281 22.707031 23.792969 C 22.632812 23.734375 22.535156 23.734375 22.460938 23.792969 C 22.363281 23.863281 22.289062 23.921875 22.191406 24.050781 C 22.175781 24.082031 22.132812 24.152344 22.132812 24.195312 L 22.132812 23.015625 C 22.132812 22.984375 22.089844 22.957031 22.058594 22.957031 L 20.738281 22.957031 C 20.652344 22.957031 20.582031 22.957031 20.496094 22.972656 C 20.410156 22.972656 20.324219 22.984375 20.238281 23.015625 C 20.222656 23.015625 20.207031 23.027344 20.207031 23 L 20.207031 22.019531 C 20.222656 22.019531 20.222656 22.019531 20.222656 22.019531 C 20.238281 22.019531 20.238281 22.019531 20.25 22.035156 C 20.308594 22.050781 20.367188 22.0625 20.410156 22.0625 L 20.421875 22.0625 C 20.464844 22.078125 20.523438 22.078125 20.582031 22.078125 L 21.917969 22.078125 C 21.929688 22.078125 21.960938 22.078125 21.972656 22.078125 C 21.988281 22.078125 22.015625 22.078125 22.03125 22.078125 C 22.058594 22.078125 22.101562 22.050781 22.101562 22.007812 L 22.101562 20.738281 C 22.101562 20.722656 22.089844 20.695312 22.058594 20.679688 C 22.046875 20.667969 22.03125 20.667969 22.015625 20.667969 L 21.183594 20.667969 C 21.011719 20.667969 20.839844 20.695312 20.726562 20.722656 L 20.683594 20.738281 L 20.683594 19.730469 L 20.738281 19.746094 C 20.855469 19.789062 20.984375 19.804688 21.113281 19.804688 L 21.929688 19.804688 C 21.972656 19.804688 22.015625 19.804688 22.058594 19.789062 C 22.074219 19.773438 22.117188 19.757812 22.117188 19.714844 L 22.117188 18.722656 C 22.132812 18.578125 22.101562 18.40625 22.046875 18.21875 Z M 16.160156 18.332031 C 16.160156 18.246094 16.214844 18.191406 16.300781 18.191406 L 21.660156 18.191406 C 21.660156 18.191406 21.671875 18.21875 21.6875 18.21875 C 21.703125 18.21875 21.703125 18.246094 21.703125 18.261719 C 21.746094 18.363281 21.757812 18.464844 21.757812 18.550781 C 21.773438 18.636719 21.773438 18.707031 21.773438 18.792969 L 21.773438 19.441406 C 21.773438 19.484375 21.773438 19.5 21.730469 19.5 L 21.183594 19.5 C 21.097656 19.5 21.027344 19.484375 20.953125 19.472656 C 20.839844 19.441406 20.726562 19.398438 20.640625 19.34375 C 20.625 19.328125 20.59375 19.3125 20.582031 19.296875 C 20.566406 19.285156 20.539062 19.269531 20.523438 19.253906 C 20.507812 19.242188 20.480469 19.242188 20.464844 19.242188 C 20.4375 19.242188 20.421875 19.253906 20.421875 19.269531 C 20.410156 19.285156 20.410156 19.3125 20.410156 19.328125 L 20.410156 21.113281 C 20.410156 21.128906 20.410156 21.128906 20.410156 21.128906 C 20.421875 21.183594 20.480469 21.171875 20.496094 21.15625 C 20.496094 21.15625 20.523438 21.140625 20.539062 21.140625 L 20.695312 21.054688 C 20.824219 20.984375 20.96875 20.953125 21.113281 20.953125 L 21.773438 20.953125 C 21.800781 20.953125 21.816406 20.953125 21.816406 20.96875 C 21.832031 21.183594 21.832031 21.644531 21.816406 21.761719 C 21.816406 21.777344 21.800781 21.789062 21.789062 21.789062 L 20.609375 21.789062 C 20.464844 21.789062 20.324219 21.746094 20.195312 21.660156 C 20.195312 21.660156 20.007812 21.558594 20.007812 21.546875 C 19.992188 21.546875 19.992188 21.546875 19.976562 21.53125 C 19.933594 21.53125 19.921875 21.558594 19.921875 21.589844 L 19.921875 23.375 C 19.921875 23.402344 19.964844 23.433594 19.976562 23.433594 C 19.992188 23.433594 20.007812 23.433594 20.035156 23.417969 C 20.09375 23.390625 20.152344 23.359375 20.195312 23.332031 C 20.335938 23.246094 20.480469 23.214844 20.625 23.214844 L 21.832031 23.214844 L 21.832031 24.484375 C 21.832031 24.484375 21.832031 24.484375 21.832031 24.46875 C 21.832031 24.453125 21.816406 24.441406 21.816406 24.425781 C 21.746094 24.253906 21.570312 24.136719 21.371094 24.109375 C 21.242188 24.09375 21.113281 24.09375 21.011719 24.136719 C 20.867188 24.179688 20.753906 24.296875 20.710938 24.441406 C 20.683594 24.511719 20.683594 24.585938 20.695312 24.628906 L 20.710938 24.671875 C 20.726562 24.699219 20.738281 24.714844 20.769531 24.726562 C 20.796875 24.742188 20.839844 24.742188 20.867188 24.726562 C 20.882812 24.726562 20.882812 24.714844 20.898438 24.714844 C 20.910156 24.714844 20.925781 24.699219 20.925781 24.699219 C 20.941406 24.699219 20.953125 24.683594 20.96875 24.683594 C 20.984375 24.671875 20.984375 24.671875 20.996094 24.671875 C 21.027344 24.65625 21.039062 24.671875 21.054688 24.683594 C 21.082031 24.714844 21.097656 24.742188 21.113281 24.769531 C 21.140625 24.828125 21.171875 24.902344 21.171875 24.972656 C 21.183594 25.03125 21.183594 25.089844 21.183594 25.132812 L 21.183594 25.738281 C 20.496094 25.910156 20.179688 26.183594 19.878906 26.425781 C 19.847656 26.457031 19.820312 26.484375 19.792969 26.5 C 19.75 26.527344 19.707031 26.542969 19.648438 26.527344 C 18.757812 26.285156 17.78125 26.601562 17.234375 27.21875 L 16.332031 27.21875 C 16.1875 27.21875 16.171875 27.175781 16.171875 27.0625 Z M 16.160156 27.695312 C 16.160156 27.609375 16.171875 27.578125 16.246094 27.578125 L 27.34375 27.578125 C 26.914062 28.011719 26.195312 28.71875 26.066406 28.820312 C 25.824219 29.035156 25.5625 29.234375 25.304688 29.378906 C 25.25 29.421875 25.175781 29.453125 25.105469 29.480469 L 24.960938 28.789062 C 24.917969 28.574219 24.730469 28.445312 24.515625 28.472656 L 20.09375 29.234375 C 20.007812 29.25 19.949219 29.324219 19.949219 29.410156 C 19.949219 29.597656 19.820312 29.640625 19.71875 29.652344 C 19.691406 29.652344 19.546875 29.695312 19.488281 29.496094 C 19.460938 29.410156 19.390625 29.351562 19.289062 29.378906 C 19.21875 29.410156 19.160156 29.480469 19.160156 29.554688 C 19.160156 29.554688 19.160156 29.566406 19.160156 29.566406 C 19.160156 29.566406 19.160156 29.582031 19.160156 29.582031 L 19.734375 32.894531 C 19.777344 33.167969 20.007812 33.371094 20.28125 33.371094 C 20.308594 33.371094 20.335938 33.371094 20.378906 33.355469 L 20.410156 33.355469 C 20.421875 33.355469 20.453125 33.339844 20.453125 33.339844 L 21.398438 33.167969 C 21.414062 33.253906 21.457031 33.296875 21.457031 33.296875 C 21.542969 33.371094 21.644531 33.414062 21.757812 33.414062 C 21.84375 33.414062 21.929688 33.414062 22.003906 33.382812 L 22.074219 33.355469 C 22.117188 33.339844 22.175781 33.339844 22.21875 33.355469 L 22.261719 33.371094 C 22.375 33.414062 22.476562 33.441406 22.589844 33.425781 L 22.722656 33.414062 C 22.765625 33.414062 22.820312 33.414062 22.863281 33.441406 C 22.980469 33.484375 23.09375 33.511719 23.210938 33.511719 C 23.296875 33.511719 23.394531 33.5 23.480469 33.484375 C 23.566406 33.46875 23.667969 33.457031 23.753906 33.46875 C 23.957031 33.484375 24.199219 33.511719 24.402344 33.484375 C 24.5 33.46875 24.585938 33.441406 24.6875 33.414062 L 24.976562 33.3125 C 25.019531 33.296875 25.0625 33.269531 25.105469 33.253906 C 25.261719 33.167969 25.40625 32.996094 25.507812 32.835938 L 25.5625 32.75 C 25.824219 32.316406 26.066406 31.871094 26.339844 31.441406 C 26.453125 31.253906 26.597656 31.078125 26.742188 30.933594 C 26.898438 30.777344 27.058594 30.632812 27.246094 30.519531 L 28.867188 29.367188 C 28.894531 29.351562 28.925781 29.324219 28.953125 29.308594 L 28.953125 32.273438 C 28.953125 34.277344 27.332031 35.773438 26.253906 36.292969 C 24.542969 37.097656 23.957031 37.359375 22.679688 37.921875 L 22.621094 37.949219 C 22.589844 37.964844 22.546875 37.964844 22.503906 37.949219 L 22.132812 37.789062 C 21.070312 37.316406 20.421875 37.042969 18.859375 36.292969 C 17.765625 35.773438 16.160156 34.277344 16.160156 32.273438 Z M 16.160156 27.695312 "/>
<path style=" stroke:none;fill-rule:nonzero;fill:rgb(53.72549%,26.27451%,3.921569%);fill-opacity:1;" d="M 60.558594 23.621094 C 59.914062 23.621094 59.28125 23.621094 58.636719 23.589844 C 58.5625 22.0625 58.59375 20.078125 58.59375 16.402344 L 58.59375 16.375 C 63.878906 16.375 64.105469 16.5625 64.453125 17.398438 L 64.566406 17.324219 C 64.464844 16.863281 64.453125 16.589844 64.453125 16.085938 C 64.453125 15.582031 64.480469 15.28125 64.566406 14.820312 L 64.453125 14.789062 C 64.191406 15.625 63.90625 15.742188 58.59375 15.8125 C 58.59375 12.472656 58.5625 10.945312 58.636719 9.042969 C 59.296875 8.972656 59.941406 9 60.53125 9 C 62.929688 9 64.808594 9.359375 66.03125 10.484375 L 66.144531 10.371094 C 66.003906 10.039062 65.570312 8.800781 65.570312 8.511719 L 57.644531 8.511719 C 57.285156 8.511719 56.308594 8.511719 55.980469 8.394531 L 55.949219 8.511719 C 56.425781 8.683594 56.667969 9.015625 56.683594 9.519531 C 56.753906 11.046875 56.726562 12.644531 56.726562 16.347656 C 56.726562 20.046875 56.753906 21.589844 56.683594 23.144531 C 56.652344 23.546875 56.425781 23.90625 55.949219 24.167969 L 55.980469 24.265625 C 56.339844 24.195312 57.269531 24.167969 57.644531 24.167969 L 66.375 24.167969 C 66.375 23.949219 67.109375 22.539062 67.238281 22.308594 L 67.121094 22.195312 C 65.613281 23.316406 63.171875 23.621094 60.558594 23.621094 Z M 60.558594 23.621094 "/>
<path style=" stroke:none;fill-rule:nonzero;fill:rgb(53.72549%,26.27451%,3.921569%);fill-opacity:1;" d="M 75.394531 23.621094 C 74.933594 23.621094 74.460938 23.621094 73.988281 23.589844 C 73.914062 22.0625 73.945312 20.0625 73.945312 16.332031 C 73.945312 12.601562 73.914062 11.03125 73.988281 9.503906 C 74.015625 9 74.246094 8.671875 74.71875 8.496094 L 74.691406 8.382812 C 74.375 8.496094 73.382812 8.496094 73.023438 8.496094 C 72.664062 8.496094 71.6875 8.496094 71.328125 8.382812 L 71.300781 8.496094 C 71.773438 8.671875 72.019531 9 72.035156 9.503906 C 72.105469 11.03125 72.078125 12.628906 72.078125 16.332031 C 72.078125 20.03125 72.105469 21.574219 72.035156 23.128906 C 72.003906 23.53125 71.773438 23.894531 71.300781 24.152344 L 71.328125 24.253906 C 71.6875 24.179688 72.621094 24.152344 72.996094 24.152344 L 81.324219 24.152344 C 81.324219 23.90625 82.042969 22.523438 82.15625 22.292969 L 82.042969 22.179688 C 80.449219 23.402344 78.09375 23.648438 75.394531 23.621094 Z M 75.394531 23.621094 "/>
<path style=" stroke:none;fill-rule:nonzero;fill:rgb(53.72549%,26.27451%,3.921569%);fill-opacity:1;" d="M 90.027344 24.167969 C 89.523438 23.921875 89.292969 23.589844 89.265625 23.144531 C 89.195312 21.589844 89.222656 20.089844 89.222656 16.347656 L 89.222656 9.085938 C 91.507812 9.058594 93.414062 9.332031 95.023438 10.5 L 95.140625 10.382812 C 95.023438 10.066406 94.566406 8.714844 94.566406 8.527344 L 82.027344 8.527344 C 82.027344 8.714844 81.570312 10.097656 81.453125 10.414062 L 81.570312 10.511719 C 83.191406 9.390625 85.128906 9.085938 87.398438 9.101562 L 87.398438 16.359375 C 87.398438 20.105469 87.425781 21.601562 87.355469 23.160156 C 87.328125 23.632812 87.097656 23.921875 86.59375 24.179688 L 86.625 24.28125 C 86.953125 24.210938 87.929688 24.179688 88.316406 24.179688 C 88.707031 24.179688 89.652344 24.210938 89.984375 24.28125 Z M 90.027344 24.167969 "/>
<path style=" stroke:none;fill-rule:nonzero;fill:rgb(53.72549%,26.27451%,3.921569%);fill-opacity:1;" d="M 103.179688 23.621094 C 102.535156 23.621094 101.886719 23.621094 101.257812 23.589844 C 101.183594 22.0625 101.214844 20.078125 101.214844 16.402344 L 101.214844 16.375 C 106.496094 16.375 106.726562 16.5625 107.074219 17.398438 L 107.1875 17.324219 C 107.085938 16.863281 107.074219 16.589844 107.074219 16.085938 C 107.074219 15.582031 107.101562 15.28125 107.1875 14.820312 L 107.074219 14.789062 C 106.8125 15.625 106.527344 15.742188 101.214844 15.8125 C 101.214844 12.472656 101.183594 10.945312 101.257812 9.042969 C 101.917969 8.972656 102.5625 9 103.152344 9 C 105.550781 9 107.429688 9.359375 108.652344 10.484375 L 108.765625 10.371094 C 108.625 10.039062 108.191406 8.800781 108.191406 8.511719 L 100.265625 8.511719 C 99.90625 8.511719 98.929688 8.511719 98.601562 8.394531 L 98.570312 8.511719 C 99.046875 8.683594 99.289062 9.015625 99.304688 9.519531 C 99.375 11.046875 99.347656 12.644531 99.347656 16.347656 C 99.347656 20.046875 99.375 21.589844 99.304688 23.144531 C 99.273438 23.546875 99.046875 23.90625 98.570312 24.167969 L 98.601562 24.265625 C 98.957031 24.195312 99.890625 24.167969 100.265625 24.167969 L 108.996094 24.167969 C 108.996094 23.949219 109.730469 22.539062 109.859375 22.308594 L 109.742188 22.195312 C 108.25 23.316406 105.792969 23.621094 103.179688 23.621094 Z M 103.179688 23.621094 "/>
<path style=" stroke:none;fill-rule:nonzero;fill:rgb(53.72549%,26.27451%,3.921569%);fill-opacity:1;" d="M 131.109375 8.527344 L 131.082031 8.410156 C 130.765625 8.527344 129.777344 8.527344 129.417969 8.527344 C 129.058594 8.527344 128.082031 8.527344 127.722656 8.410156 L 127.695312 8.527344 C 128.167969 8.699219 128.410156 9.03125 128.425781 9.535156 C 128.496094 11.0625 128.496094 12.660156 128.496094 16.359375 C 128.496094 20.0625 128.496094 21.601562 128.425781 23.160156 C 128.398438 23.605469 128.167969 23.964844 127.695312 24.179688 L 127.722656 24.28125 C 128.109375 24.210938 129.027344 24.179688 129.417969 24.179688 C 129.804688 24.179688 130.753906 24.210938 131.082031 24.28125 L 131.109375 24.179688 C 130.796875 24.007812 130.394531 23.820312 130.378906 23.160156 C 130.308594 21.601562 130.335938 20.105469 130.335938 16.359375 C 130.335938 12.617188 130.308594 11.0625 130.378906 9.535156 C 130.394531 9.015625 130.636719 8.683594 131.109375 8.527344 Z M 131.109375 8.527344 "/>
<path style=" stroke:none;fill-rule:nonzero;fill:rgb(53.72549%,26.27451%,3.921569%);fill-opacity:1;" d="M 152.78125 24.265625 L 152.808594 24.167969 C 152.351562 23.992188 151.359375 23.445312 150.667969 22.753906 C 149.148438 21.230469 146.460938 18.464844 142.945312 14.863281 C 145.585938 12.574219 147.582031 10.859375 148.917969 9.734375 C 149.75 9.042969 150.582031 8.640625 151.058594 8.511719 L 150.984375 8.394531 C 150.527344 8.496094 150.039062 8.511719 149.5625 8.511719 C 149.089844 8.511719 148.5 8.484375 148.140625 8.394531 L 148.097656 8.511719 C 148.457031 8.625 148.359375 8.988281 147.625 9.679688 C 146.132812 11.089844 143.921875 13.179688 140.417969 16.332031 L 140.417969 16.214844 C 140.417969 12.585938 140.386719 11.0625 140.460938 9.503906 C 140.488281 9 140.71875 8.671875 141.191406 8.496094 L 141.164062 8.382812 C 140.847656 8.496094 139.855469 8.496094 139.496094 8.496094 C 139.136719 8.496094 138.160156 8.496094 137.804688 8.382812 L 137.773438 8.496094 C 138.25 8.671875 138.492188 9 138.507812 9.503906 C 138.578125 11.03125 138.550781 12.628906 138.550781 16.332031 C 138.550781 20.03125 138.578125 21.574219 138.507812 23.128906 C 138.476562 23.574219 138.25 23.9375 137.773438 24.152344 L 137.804688 24.253906 C 138.191406 24.179688 139.109375 24.152344 139.496094 24.152344 C 139.886719 24.152344 140.832031 24.179688 141.164062 24.253906 L 141.191406 24.152344 C 140.71875 23.9375 140.472656 23.574219 140.460938 23.128906 C 140.386719 21.71875 140.417969 20.25 140.417969 17.050781 L 141.652344 15.984375 C 145.140625 19.617188 147.164062 21.644531 148.617188 23.144531 C 149.074219 23.621094 149.046875 23.90625 148.5 24.167969 L 148.53125 24.265625 C 148.917969 24.195312 150.339844 24.167969 150.84375 24.167969 C 151.257812 24.167969 152.277344 24.195312 152.78125 24.265625 Z M 152.78125 24.265625 "/>
<path style=" stroke:none;fill-rule:nonzero;fill:rgb(53.72549%,26.27451%,3.921569%);fill-opacity:1;" d="M 117.539062 26.097656 C 117.640625 26.097656 117.714844 26.023438 117.714844 25.921875 L 117.714844 6.625 C 117.714844 6.523438 117.640625 6.453125 117.539062 6.453125 C 117.441406 6.453125 117.367188 6.523438 117.367188 6.625 L 117.367188 25.921875 C 117.367188 26.011719 117.441406 26.097656 117.539062 26.097656 Z M 117.539062 26.097656 "/>
<path style=" stroke:none;fill-rule:nonzero;fill:rgb(53.72549%,26.27451%,3.921569%);fill-opacity:1;" d="M 57.703125 32.21875 L 57.6875 32.175781 C 57.574219 32.21875 57.171875 32.21875 57.042969 32.21875 C 56.914062 32.21875 56.523438 32.21875 56.382812 32.175781 L 56.367188 32.21875 C 56.554688 32.289062 56.652344 32.417969 56.652344 32.605469 C 56.683594 33.210938 56.683594 33.832031 56.683594 35.285156 C 56.683594 36.738281 56.683594 37.34375 56.652344 37.949219 C 56.640625 38.121094 56.554688 38.265625 56.367188 38.351562 L 56.382812 38.394531 C 56.523438 38.367188 56.898438 38.351562 57.042969 38.351562 C 57.183594 38.351562 57.558594 38.367188 57.6875 38.394531 L 57.703125 38.351562 C 57.585938 38.28125 57.414062 38.207031 57.414062 37.949219 C 57.386719 37.34375 57.402344 36.753906 57.402344 35.285156 C 57.402344 33.816406 57.386719 33.210938 57.414062 32.605469 C 57.414062 32.417969 57.515625 32.289062 57.703125 32.21875 Z M 57.703125 32.21875 "/>
<path style=" stroke:none;fill-rule:nonzero;fill:rgb(53.72549%,26.27451%,3.921569%);fill-opacity:1;" d="M 65.65625 32.21875 C 65.515625 32.21875 65.328125 32.203125 65.183594 32.175781 L 65.167969 32.21875 C 65.371094 32.289062 65.429688 32.390625 65.457031 32.605469 C 65.5 33.210938 65.527344 33.832031 65.527344 35.285156 C 65.527344 36.421875 65.542969 36.8125 65.570312 37.34375 C 64.710938 36.378906 63.847656 35.441406 63.460938 34.984375 C 63.058594 34.535156 62.140625 33.46875 61.046875 32.21875 L 60.90625 32.21875 C 60.617188 32.21875 60.285156 32.203125 60.070312 32.175781 L 60.058594 32.21875 C 60.273438 32.304688 60.386719 32.449219 60.386719 32.664062 C 60.417969 33.269531 60.402344 33.832031 60.402344 35.285156 C 60.402344 36.738281 60.386719 37.34375 60.34375 37.949219 C 60.332031 38.121094 60.242188 38.265625 60.058594 38.351562 L 60.070312 38.394531 C 60.214844 38.367188 60.386719 38.351562 60.53125 38.351562 C 60.675781 38.351562 60.875 38.367188 60.992188 38.394531 L 61.003906 38.351562 C 60.804688 38.25 60.71875 38.136719 60.71875 37.949219 C 60.675781 37.34375 60.644531 36.738281 60.644531 35.285156 C 60.644531 33.832031 60.632812 33.457031 60.632812 32.835938 C 61.867188 34.246094 62.699219 35.167969 62.988281 35.5 L 65.644531 38.539062 L 65.816406 38.539062 C 65.785156 37.933594 65.800781 36.753906 65.800781 35.285156 C 65.800781 33.816406 65.816406 33.210938 65.875 32.605469 C 65.902344 32.390625 65.960938 32.289062 66.160156 32.21875 L 66.144531 32.175781 C 65.988281 32.21875 65.800781 32.21875 65.65625 32.21875 Z M 65.65625 32.21875 "/>
<path style=" stroke:none;fill-rule:nonzero;fill:rgb(53.72549%,26.27451%,3.921569%);fill-opacity:1;" d="M 69.304688 32.21875 C 69.160156 32.21875 68.789062 32.21875 68.660156 32.175781 L 68.644531 32.21875 C 68.832031 32.289062 68.933594 32.417969 68.933594 32.605469 C 68.960938 33.210938 68.945312 33.832031 68.945312 35.285156 C 68.945312 36.738281 68.960938 37.34375 68.933594 37.949219 C 68.917969 38.121094 68.832031 38.265625 68.644531 38.351562 L 68.660156 38.394531 C 68.800781 38.367188 69.234375 38.351562 69.320312 38.351562 C 69.464844 38.351562 69.835938 38.367188 69.964844 38.394531 L 69.980469 38.351562 C 69.792969 38.265625 69.691406 38.121094 69.691406 37.949219 C 69.664062 37.34375 69.679688 36.753906 69.679688 35.3125 L 69.679688 35.300781 C 71.746094 35.300781 71.847656 35.371094 71.976562 35.703125 L 72.019531 35.671875 C 71.976562 35.5 71.976562 35.386719 71.976562 35.183594 C 71.976562 34.984375 71.992188 34.867188 72.019531 34.695312 L 71.976562 34.679688 C 71.875 35.011719 71.761719 35.054688 69.679688 35.082031 C 69.679688 33.773438 69.664062 33.183594 69.691406 32.433594 C 69.953125 32.417969 70.210938 32.40625 70.453125 32.40625 C 71.300781 32.40625 72.0625 32.519531 72.59375 32.996094 L 72.636719 32.953125 C 72.578125 32.820312 72.40625 32.332031 72.40625 32.21875 Z M 69.304688 32.21875 "/>
<path style=" stroke:none;fill-rule:nonzero;fill:rgb(53.72549%,26.27451%,3.921569%);fill-opacity:1;" d="M 77.261719 32.03125 C 75.453125 32.03125 73.902344 33.296875 73.902344 35.285156 C 73.902344 37.273438 75.453125 38.539062 77.261719 38.539062 C 79.070312 38.539062 80.605469 37.273438 80.605469 35.285156 C 80.605469 33.296875 79.054688 32.03125 77.261719 32.03125 Z M 77.261719 38.265625 C 75.867188 38.265625 74.691406 37.128906 74.691406 35.300781 C 74.691406 33.46875 75.867188 32.332031 77.261719 32.332031 C 78.652344 32.332031 79.816406 33.46875 79.816406 35.300781 C 79.800781 37.128906 78.640625 38.265625 77.261719 38.265625 Z M 77.261719 38.265625 "/>
<path style=" stroke:none;fill-rule:nonzero;fill:rgb(53.72549%,26.27451%,3.921569%);fill-opacity:1;" d="M 86.867188 38.265625 C 86.480469 38.265625 86.136719 37.632812 85.761719 36.96875 C 85.375 36.308594 84.945312 35.574219 84.398438 35.414062 C 85.417969 35.269531 86.265625 34.738281 86.265625 33.730469 C 86.265625 32.894531 85.53125 32.175781 83.824219 32.175781 C 83.679688 32.175781 82.816406 32.1875 82.515625 32.21875 L 82.515625 32.261719 C 82.6875 32.273438 82.789062 32.375 82.804688 32.621094 C 82.832031 33.226562 82.816406 33.84375 82.816406 35.300781 C 82.816406 36.753906 82.832031 37.359375 82.804688 37.964844 C 82.789062 38.136719 82.703125 38.265625 82.503906 38.367188 L 82.515625 38.410156 C 82.660156 38.382812 83.035156 38.367188 83.175781 38.367188 C 83.320312 38.367188 83.695312 38.382812 83.824219 38.410156 L 83.835938 38.367188 C 83.664062 38.28125 83.566406 38.136719 83.550781 37.964844 C 83.523438 37.386719 83.523438 36.78125 83.523438 35.5 C 83.621094 35.488281 83.695312 35.488281 83.792969 35.488281 C 83.878906 35.488281 83.96875 35.488281 84.054688 35.5 C 84.5 35.617188 84.699219 36.207031 84.957031 36.8125 C 85.257812 37.605469 85.589844 38.453125 86.378906 38.453125 C 86.59375 38.453125 86.796875 38.4375 86.984375 38.308594 L 86.96875 38.265625 C 86.925781 38.25 86.882812 38.265625 86.867188 38.265625 Z M 83.824219 35.199219 C 83.722656 35.199219 83.636719 35.199219 83.535156 35.183594 C 83.535156 33.945312 83.535156 32.980469 83.566406 32.417969 C 84.785156 32.417969 85.488281 32.722656 85.488281 33.730469 C 85.488281 34.738281 84.84375 35.199219 83.824219 35.199219 Z M 83.824219 35.199219 "/>
<path style=" stroke:none;fill-rule:nonzero;fill:rgb(53.72549%,26.27451%,3.921569%);fill-opacity:1;" d="M 95.367188 32.21875 L 95.355469 32.175781 C 95.28125 32.203125 94.964844 32.21875 94.792969 32.21875 C 94.652344 32.21875 94.378906 32.21875 94.304688 32.1875 C 94.046875 32.792969 93.632812 33.773438 92.972656 35.269531 C 92.425781 36.480469 92.351562 36.683594 92.050781 37.316406 C 91.765625 36.683594 91.777344 36.710938 91.105469 35.285156 C 90.429688 33.816406 89.96875 32.792969 89.710938 32.1875 C 89.609375 32.21875 89.367188 32.21875 89.207031 32.21875 C 89.035156 32.21875 88.792969 32.203125 88.605469 32.175781 L 88.589844 32.21875 C 88.777344 32.289062 88.878906 32.417969 88.878906 32.605469 C 88.90625 33.210938 88.890625 33.832031 88.890625 35.285156 C 88.890625 36.738281 88.878906 37.34375 88.835938 37.949219 C 88.820312 38.109375 88.734375 38.25 88.546875 38.351562 L 88.5625 38.394531 C 88.707031 38.367188 88.890625 38.351562 89.023438 38.351562 C 89.164062 38.351562 89.351562 38.367188 89.496094 38.394531 L 89.511719 38.351562 C 89.324219 38.25 89.222656 38.109375 89.222656 37.949219 C 89.179688 37.34375 89.164062 36.753906 89.164062 35.285156 C 89.164062 33.972656 89.121094 33.339844 89.121094 32.75 L 89.195312 32.867188 C 89.480469 33.425781 89.667969 33.902344 90.328125 35.285156 C 91.003906 36.738281 91.449219 37.660156 91.691406 38.265625 L 91.921875 38.265625 C 92.152344 37.660156 92.539062 36.753906 93.214844 35.269531 C 93.789062 33.988281 94.078125 33.339844 94.347656 32.765625 C 94.378906 33.339844 94.347656 33.960938 94.347656 35.285156 C 94.347656 36.753906 94.363281 37.34375 94.335938 37.949219 C 94.320312 38.109375 94.234375 38.25 94.046875 38.351562 L 94.0625 38.394531 C 94.207031 38.367188 94.578125 38.351562 94.722656 38.351562 C 94.867188 38.351562 95.238281 38.367188 95.367188 38.394531 L 95.382812 38.351562 C 95.195312 38.25 95.097656 38.109375 95.097656 37.949219 C 95.066406 37.34375 95.082031 36.753906 95.082031 35.285156 C 95.082031 33.816406 95.066406 33.210938 95.097656 32.605469 C 95.097656 32.347656 95.253906 32.261719 95.367188 32.21875 Z M 95.367188 32.21875 "/>
<path style=" stroke:none;fill-rule:nonzero;fill:rgb(53.72549%,26.27451%,3.921569%);fill-opacity:1;" d="M 102.621094 37.804688 C 102.289062 37.199219 102.105469 36.796875 101.429688 35.371094 C 100.753906 33.945312 100.195312 32.734375 99.949219 32.144531 L 99.820312 32.144531 C 99.5625 32.75 99.015625 33.945312 98.339844 35.371094 C 97.667969 36.78125 97.4375 37.273438 97.105469 37.863281 C 96.960938 38.152344 96.804688 38.28125 96.605469 38.351562 L 96.617188 38.394531 C 96.789062 38.367188 96.976562 38.351562 97.164062 38.351562 C 97.351562 38.351562 97.550781 38.367188 97.695312 38.394531 L 97.710938 38.351562 C 97.480469 38.25 97.394531 38.109375 97.449219 37.949219 C 97.625 37.515625 97.796875 37.113281 98.125 36.410156 L 101.15625 36.410156 C 101.5 37.113281 101.6875 37.53125 101.859375 37.949219 C 101.929688 38.109375 101.84375 38.25 101.617188 38.351562 L 101.628906 38.394531 C 101.773438 38.367188 102.246094 38.351562 102.433594 38.351562 C 102.636719 38.351562 102.980469 38.367188 103.167969 38.394531 L 103.179688 38.351562 C 102.980469 38.296875 102.765625 38.078125 102.621094 37.804688 Z M 98.210938 36.164062 C 98.3125 35.933594 98.441406 35.671875 98.570312 35.371094 C 99.117188 34.191406 99.304688 33.714844 99.605469 33.097656 C 99.90625 33.714844 100.007812 33.972656 100.652344 35.371094 C 100.796875 35.660156 100.910156 35.917969 101.011719 36.164062 Z M 98.210938 36.164062 "/>
<path style=" stroke:none;fill-rule:nonzero;fill:rgb(53.72549%,26.27451%,3.921569%);fill-opacity:1;" d="M 103.265625 32.21875 C 103.265625 32.289062 103.09375 32.835938 103.039062 32.953125 L 103.082031 32.996094 C 103.710938 32.546875 104.472656 32.433594 105.363281 32.449219 L 105.363281 35.285156 C 105.363281 36.753906 105.378906 37.34375 105.347656 37.949219 C 105.335938 38.136719 105.25 38.25 105.046875 38.351562 L 105.0625 38.394531 C 105.191406 38.367188 105.578125 38.351562 105.722656 38.351562 C 105.867188 38.351562 106.238281 38.367188 106.367188 38.394531 L 106.382812 38.351562 C 106.183594 38.265625 106.097656 38.121094 106.082031 37.949219 C 106.054688 37.34375 106.066406 36.753906 106.066406 35.285156 L 106.066406 32.449219 C 106.957031 32.433594 107.703125 32.535156 108.335938 32.996094 L 108.378906 32.953125 C 108.335938 32.835938 108.148438 32.289062 108.148438 32.21875 Z M 103.265625 32.21875 "/>
<path style=" stroke:none;fill-rule:nonzero;fill:rgb(53.72549%,26.27451%,3.921569%);fill-opacity:1;" d="M 111.367188 32.21875 L 111.351562 32.175781 C 111.238281 32.21875 110.835938 32.21875 110.707031 32.21875 C 110.578125 32.21875 110.1875 32.21875 110.042969 32.175781 L 110.03125 32.21875 C 110.21875 32.289062 110.316406 32.417969 110.316406 32.605469 C 110.347656 33.210938 110.347656 33.832031 110.347656 35.285156 C 110.347656 36.738281 110.347656 37.34375 110.316406 37.949219 C 110.304688 38.121094 110.21875 38.265625 110.03125 38.351562 L 110.042969 38.394531 C 110.1875 38.367188 110.5625 38.351562 110.707031 38.351562 C 110.847656 38.351562 111.222656 38.367188 111.351562 38.394531 L 111.367188 38.351562 C 111.25 38.28125 111.078125 38.207031 111.078125 37.949219 C 111.050781 37.34375 111.066406 36.753906 111.066406 35.285156 C 111.066406 33.816406 111.050781 33.210938 111.078125 32.605469 C 111.09375 32.417969 111.179688 32.289062 111.367188 32.21875 Z M 111.367188 32.21875 "/>
<path style=" stroke:none;fill-rule:nonzero;fill:rgb(53.72549%,26.27451%,3.921569%);fill-opacity:1;" d="M 115.902344 34.707031 C 116.9375 33.816406 117.726562 33.140625 118.246094 32.691406 C 118.574219 32.417969 118.890625 32.261719 119.078125 32.21875 L 119.046875 32.175781 C 118.875 32.21875 118.675781 32.21875 118.488281 32.21875 C 118.300781 32.21875 118.070312 32.203125 117.929688 32.175781 L 117.914062 32.21875 C 118.058594 32.261719 118.015625 32.40625 117.726562 32.679688 C 117.140625 33.226562 116.277344 34.0625 114.898438 35.285156 L 114.898438 35.242188 C 114.898438 33.816406 114.882812 33.226562 114.914062 32.621094 C 114.925781 32.417969 115.011719 32.289062 115.199219 32.230469 L 115.1875 32.1875 C 115.070312 32.230469 114.667969 32.230469 114.539062 32.230469 C 114.410156 32.230469 114.023438 32.230469 113.878906 32.1875 L 113.863281 32.230469 C 114.050781 32.304688 114.152344 32.433594 114.152344 32.621094 C 114.179688 33.226562 114.167969 33.84375 114.167969 35.300781 C 114.167969 36.753906 114.179688 37.359375 114.152344 37.964844 C 114.136719 38.136719 114.050781 38.28125 113.863281 38.367188 L 113.878906 38.410156 C 114.023438 38.382812 114.394531 38.367188 114.539062 38.367188 C 114.683594 38.367188 115.054688 38.382812 115.1875 38.410156 L 115.199219 38.367188 C 115.011719 38.28125 114.914062 38.136719 114.914062 37.964844 C 114.882812 37.417969 114.898438 36.824219 114.898438 35.574219 L 115.386719 35.15625 C 116.75 36.582031 117.554688 37.375 118.117188 37.964844 C 118.289062 38.152344 118.289062 38.265625 118.070312 38.367188 L 118.085938 38.410156 C 118.230469 38.382812 118.789062 38.367188 118.992188 38.367188 C 119.164062 38.367188 119.566406 38.382812 119.765625 38.410156 L 119.78125 38.367188 C 119.609375 38.296875 119.207031 38.078125 118.949219 37.820312 C 118.34375 37.199219 117.28125 36.121094 115.902344 34.707031 Z M 115.902344 34.707031 "/>
<path style=" stroke:none;fill-rule:nonzero;fill:rgb(53.72549%,26.27451%,3.921569%);fill-opacity:1;" d="M 125.855469 37.804688 C 125.523438 37.199219 125.339844 36.796875 124.664062 35.371094 C 123.988281 33.945312 123.429688 32.734375 123.183594 32.144531 L 123.054688 32.144531 C 122.796875 32.75 122.25 33.945312 121.574219 35.371094 C 120.902344 36.78125 120.671875 37.273438 120.339844 37.863281 C 120.199219 38.152344 120.039062 38.28125 119.839844 38.351562 L 119.851562 38.394531 C 120.023438 38.367188 120.210938 38.351562 120.398438 38.351562 C 120.585938 38.351562 120.785156 38.367188 120.929688 38.394531 L 120.945312 38.351562 C 120.714844 38.25 120.628906 38.109375 120.6875 37.949219 C 120.859375 37.515625 121.03125 37.113281 121.359375 36.410156 L 124.390625 36.410156 C 124.734375 37.113281 124.921875 37.53125 125.09375 37.949219 C 125.167969 38.109375 125.078125 38.25 124.851562 38.351562 L 124.863281 38.394531 C 125.007812 38.367188 125.480469 38.351562 125.667969 38.351562 C 125.871094 38.351562 126.214844 38.367188 126.402344 38.394531 L 126.414062 38.351562 C 126.230469 38.296875 126 38.078125 125.855469 37.804688 Z M 121.460938 36.164062 C 121.5625 35.933594 121.691406 35.671875 121.820312 35.371094 C 122.367188 34.191406 122.550781 33.714844 122.855469 33.097656 C 123.15625 33.714844 123.257812 33.972656 123.902344 35.371094 C 124.046875 35.660156 124.160156 35.917969 124.261719 36.164062 Z M 121.460938 36.164062 "/>
<path style=" stroke:none;fill-rule:nonzero;fill:rgb(53.72549%,26.27451%,3.921569%);fill-opacity:1;" d="M 128.972656 32.21875 L 128.957031 32.175781 C 128.84375 32.21875 128.441406 32.21875 128.3125 32.21875 C 128.183594 32.21875 127.792969 32.21875 127.652344 32.175781 L 127.636719 32.21875 C 127.824219 32.289062 127.921875 32.417969 127.921875 32.605469 C 127.953125 33.210938 127.953125 33.832031 127.953125 35.285156 C 127.953125 36.738281 127.953125 37.34375 127.921875 37.949219 C 127.910156 38.121094 127.824219 38.265625 127.636719 38.351562 L 127.652344 38.394531 C 127.792969 38.367188 128.167969 38.351562 128.3125 38.351562 C 128.453125 38.351562 128.828125 38.367188 128.957031 38.394531 L 128.972656 38.351562 C 128.855469 38.28125 128.683594 38.207031 128.683594 37.949219 C 128.65625 37.34375 128.671875 36.753906 128.671875 35.285156 C 128.671875 33.816406 128.65625 33.210938 128.683594 32.605469 C 128.683594 32.417969 128.785156 32.289062 128.972656 32.21875 Z M 128.972656 32.21875 "/>
<path style=" stroke:none;fill-rule:nonzero;fill:rgb(53.72549%,26.27451%,3.921569%);fill-opacity:1;" d="M 136.769531 34.707031 C 137.804688 33.816406 138.59375 33.140625 139.109375 32.691406 C 139.441406 32.417969 139.757812 32.261719 139.941406 32.21875 L 139.914062 32.175781 C 139.742188 32.21875 139.539062 32.21875 139.355469 32.21875 C 139.167969 32.21875 138.9375 32.203125 138.792969 32.175781 L 138.78125 32.21875 C 138.921875 32.261719 138.878906 32.40625 138.59375 32.679688 C 138.003906 33.226562 137.140625 34.0625 135.765625 35.285156 L 135.765625 35.242188 C 135.765625 33.816406 135.75 33.226562 135.777344 32.621094 C 135.792969 32.417969 135.878906 32.289062 136.066406 32.230469 L 136.050781 32.1875 C 135.9375 32.230469 135.535156 32.230469 135.40625 32.230469 C 135.277344 32.230469 134.886719 32.230469 134.746094 32.1875 L 134.730469 32.230469 C 134.917969 32.304688 135.015625 32.433594 135.015625 32.621094 C 135.046875 33.226562 135.03125 33.84375 135.03125 35.300781 C 135.03125 36.753906 135.046875 37.359375 135.015625 37.964844 C 135.003906 38.136719 134.917969 38.28125 134.730469 38.367188 L 134.746094 38.410156 C 134.886719 38.382812 135.261719 38.367188 135.40625 38.367188 C 135.546875 38.367188 135.921875 38.382812 136.050781 38.410156 L 136.066406 38.367188 C 135.878906 38.28125 135.777344 38.136719 135.777344 37.964844 C 135.75 37.417969 135.765625 36.824219 135.765625 35.574219 L 136.253906 35.15625 C 137.617188 36.582031 138.421875 37.375 138.980469 37.964844 C 139.152344 38.152344 139.152344 38.265625 138.9375 38.367188 L 138.953125 38.410156 C 139.09375 38.382812 139.65625 38.367188 139.855469 38.367188 C 140.027344 38.367188 140.429688 38.382812 140.632812 38.410156 L 140.644531 38.367188 C 140.472656 38.296875 140.070312 38.078125 139.8125 37.820312 C 139.195312 37.199219 138.148438 36.121094 136.769531 34.707031 Z M 136.769531 34.707031 "/>
<path style=" stroke:none;fill-rule:nonzero;fill:rgb(53.72549%,26.27451%,3.921569%);fill-opacity:1;" d="M 146.722656 37.804688 C 146.390625 37.199219 146.203125 36.796875 145.527344 35.371094 C 144.855469 33.945312 144.292969 32.734375 144.050781 32.144531 L 143.921875 32.144531 C 143.660156 32.75 143.117188 33.945312 142.441406 35.371094 C 141.765625 36.78125 141.535156 37.273438 141.207031 37.863281 C 141.0625 38.152344 140.90625 38.28125 140.703125 38.351562 L 140.71875 38.394531 C 140.890625 38.367188 141.078125 38.351562 141.265625 38.351562 C 141.449219 38.351562 141.652344 38.367188 141.796875 38.394531 L 141.808594 38.351562 C 141.578125 38.25 141.492188 38.109375 141.550781 37.949219 C 141.722656 37.515625 141.894531 37.113281 142.226562 36.410156 L 145.257812 36.410156 C 145.601562 37.113281 145.789062 37.53125 145.960938 37.949219 C 146.03125 38.109375 145.945312 38.25 145.714844 38.351562 L 145.730469 38.394531 C 145.875 38.367188 146.347656 38.351562 146.535156 38.351562 C 146.734375 38.351562 147.078125 38.367188 147.265625 38.394531 L 147.28125 38.351562 C 147.078125 38.296875 146.851562 38.078125 146.722656 37.804688 Z M 142.3125 36.164062 C 142.414062 35.933594 142.542969 35.671875 142.671875 35.371094 C 143.21875 34.191406 143.402344 33.714844 143.707031 33.097656 C 144.007812 33.714844 144.105469 33.972656 144.753906 35.371094 C 144.898438 35.660156 145.011719 35.917969 145.113281 36.164062 Z M 142.3125 36.164062 "/>
<path style=" stroke:none;fill-rule:nonzero;fill:rgb(53.72549%,26.27451%,3.921569%);fill-opacity:1;" d="M 152.996094 38.238281 C 152.953125 38.25 152.910156 38.25 152.894531 38.25 C 152.507812 38.25 152.164062 37.617188 151.789062 36.957031 C 151.402344 36.292969 150.972656 35.558594 150.410156 35.398438 C 151.429688 35.257812 152.277344 34.722656 152.277344 33.714844 C 152.277344 32.878906 151.546875 32.160156 149.851562 32.160156 C 149.707031 32.160156 148.859375 32.175781 148.542969 32.203125 L 148.542969 32.246094 C 148.714844 32.261719 148.816406 32.359375 148.816406 32.605469 C 148.847656 33.210938 148.832031 33.832031 148.832031 35.285156 C 148.832031 36.738281 148.847656 37.34375 148.816406 37.949219 C 148.804688 38.121094 148.714844 38.25 148.515625 38.351562 L 148.53125 38.394531 C 148.671875 38.367188 149.046875 38.351562 149.191406 38.351562 C 149.335938 38.351562 149.707031 38.367188 149.851562 38.394531 L 149.867188 38.351562 C 149.691406 38.265625 149.59375 38.121094 149.59375 37.949219 C 149.5625 37.375 149.5625 36.769531 149.5625 35.488281 C 149.664062 35.472656 149.738281 35.472656 149.835938 35.472656 C 149.921875 35.472656 150.007812 35.472656 150.09375 35.488281 C 150.539062 35.601562 150.757812 36.191406 151 36.796875 C 151.300781 37.589844 151.632812 38.4375 152.421875 38.4375 C 152.636719 38.4375 152.839844 38.425781 153.023438 38.296875 Z M 149.851562 35.199219 C 149.75 35.199219 149.664062 35.199219 149.5625 35.183594 C 149.5625 33.945312 149.5625 32.980469 149.59375 32.417969 C 150.8125 32.417969 151.515625 32.722656 151.515625 33.730469 C 151.515625 34.738281 150.855469 35.199219 149.851562 35.199219 Z M 149.851562 35.199219 "/>
</g>
</svg>
