<?xml version="1.0" encoding="UTF-8"?>
<svg xmlns="http://www.w3.org/2000/svg" xmlns:xlink="http://www.w3.org/1999/xlink" width="80px" height="60px" viewBox="0 0 80 60" version="1.1">
<g id="surface1">
<path style="fill-rule:nonzero;fill:rgb(5.490196%,57.647059%,55.294118%);fill-opacity:1;stroke-width:0.263925;stroke-linecap:butt;stroke-linejoin:miter;stroke:rgb(5.490196%,57.647059%,55.294118%);stroke-opacity:1;stroke-miterlimit:4;" d="M 52.202664 268.351477 L 76.667472 286.68396 L 96.784501 287.123003 L 94.937916 282.371582 L 61.445359 262.312197 Z M 52.202664 268.351477 " transform="matrix(0.399809,0,0,0.400374,0.000000000000006414,-58.854931)"/>
<path style="fill-rule:nonzero;fill:rgb(35.294118%,85.490196%,21.960784%);fill-opacity:1;stroke-width:0.266368;stroke-linecap:butt;stroke-linejoin:miter;stroke:rgb(35.294118%,85.490196%,21.960784%);stroke-opacity:1;stroke-miterlimit:4;" d="M 51.41127 265.180611 L 40.380612 228.857122 L 44.601377 209.100189 L 48.108912 213.646723 L 60.937304 259.277922 Z M 51.41127 265.180611 " transform="matrix(0.399809,0,0,0.400374,0.000000000000006414,-58.854931)"/>
<path style="fill-rule:nonzero;fill:rgb(55.294118%,93.72549%,32.54902%);fill-opacity:1;stroke-width:0.266051;stroke-linecap:butt;stroke-linejoin:miter;stroke:rgb(55.294118%,93.72549%,32.54902%);stroke-opacity:1;stroke-miterlimit:4;" d="M 48.04052 213.656479 L 53.140612 201.451085 L 62.979294 193.431233 L 63.50689 199.704669 L 75.094455 250.984888 L 60.868912 259.180357 Z M 48.04052 213.656479 " transform="matrix(0.399809,0,0,0.400374,0.000000000000006414,-58.854931)"/>
<path style="fill-rule:nonzero;fill:rgb(76.078431%,97.254902%,43.137255%);fill-opacity:1;stroke-width:0.266287;stroke-linecap:butt;stroke-linejoin:miter;stroke:rgb(74.509804%,96.078431%,41.568627%);stroke-opacity:1;stroke-miterlimit:4;" d="M 63.360336 199.753452 L 73.90248 189.099342 L 85.67568 184.552809 L 83.741162 188.396874 L 90.590136 241.862551 L 74.957671 251.121479 Z M 63.360336 199.753452 " transform="matrix(0.399809,0,0,0.400374,0.000000000000006414,-58.854931)"/>
<path style="fill-rule:nonzero;fill:rgb(85.098039%,100%,46.666667%);fill-opacity:1;stroke-width:0.265345;stroke-linecap:butt;stroke-linejoin:miter;stroke:rgb(85.098039%,100%,46.666667%);stroke-opacity:1;stroke-miterlimit:4;" d="M 83.555527 188.445656 L 102.177701 180.572152 L 112.446277 177.069565 L 110.013474 181.264865 L 113.452617 228.749801 L 90.345879 242.018655 Z M 83.555527 188.445656 " transform="matrix(0.399809,0,0,0.400374,0.000000000000006414,-58.854931)"/>
<path style="fill-rule:nonzero;fill:rgb(53.72549%,100%,80.392157%);fill-opacity:1;stroke-width:0.263157;stroke-linecap:butt;stroke-linejoin:miter;stroke:rgb(53.72549%,100%,80.392157%);stroke-opacity:1;stroke-miterlimit:4;" d="M 155.787287 209.187997 C 155.787287 209.187997 160.672432 188.035883 160.672432 187.323658 C 160.672432 186.621189 161.053474 166.79596 161.053474 166.79596 L 153.706215 181.147786 L 143.78937 195.977682 L 132.406981 209.197754 L 150.491789 210.007544 Z M 155.787287 209.187997 " transform="matrix(0.399809,0,0,0.400374,0.000000000000006414,-58.854931)"/>
<path style="fill-rule:nonzero;fill:rgb(93.333333%,100%,64.705882%);fill-opacity:1;stroke-width:0.063;stroke-linecap:butt;stroke-linejoin:miter;stroke:rgb(93.333333%,100%,64.705882%);stroke-opacity:1;stroke-miterlimit:4;" d="M 131.69375 176.210992 L 156.22695 169.479 L 160.867838 166.79596 L 153.755066 181.186813 L 131.156384 208.895302 Z M 131.69375 176.210992 " transform="matrix(0.399809,0,0,0.400374,0.000000000000006414,-58.854931)"/>
<path style="fill-rule:nonzero;fill:rgb(88.627451%,100%,60%);fill-opacity:1;stroke-width:0.264583;stroke-linecap:butt;stroke-linejoin:miter;stroke:rgb(88.627451%,100%,60%);stroke-opacity:1;stroke-miterlimit:4;" d="M 110.013474 181.245352 L 123.936139 174.45482 L 133.862754 172.542544 L 131.947777 175.674384 L 130.726491 208.573337 L 113.452617 228.447349 Z M 110.013474 181.245352 " transform="matrix(0.399809,0,0,0.400374,0.000000000000006414,-58.854931)"/>
<path style="fill-rule:nonzero;fill:rgb(35.686275%,96.862745%,72.941176%);fill-opacity:1;stroke-width:0.264583;stroke-linecap:butt;stroke-linejoin:miter;stroke:rgb(35.686275%,96.862745%,72.941176%);stroke-opacity:1;stroke-miterlimit:4;" d="M 115.494608 226.818012 L 137.360518 232.281658 L 150.208451 233.403656 L 157.985602 220.827514 L 159.568389 206.543983 L 156.041314 209.187997 L 150.687195 210.007544 L 130.462693 211.363699 Z M 115.494608 226.818012 " transform="matrix(0.399809,0,0,0.400374,0.000000000000006414,-58.854931)"/>
<path style="fill-rule:nonzero;fill:rgb(3.137255%,65.490196%,53.72549%);fill-opacity:1;stroke-width:0.264178;stroke-linecap:butt;stroke-linejoin:miter;stroke:rgb(3.137255%,65.490196%,53.72549%);stroke-opacity:1;stroke-miterlimit:4;" d="M 112.319263 271.766255 L 132.524224 264.741568 L 138.259385 255.433857 L 132.846644 255.814361 L 89.407931 242.721124 L 75.885849 252.780086 Z M 112.319263 271.766255 " transform="matrix(0.399809,0,0,0.400374,0.000000000000006414,-58.854931)"/>
<path style="fill-rule:nonzero;fill:rgb(12.54902%,81.568627%,62.745098%);fill-opacity:1;stroke-width:0.260115;stroke-linecap:butt;stroke-linejoin:miter;stroke:rgb(12.54902%,81.568627%,62.745098%);stroke-opacity:1;stroke-miterlimit:4;" d="M 132.866185 255.921682 L 146.202632 248.194526 L 153.823458 231.423085 L 148.264163 233.403656 L 113.198589 229.462026 L 92.925236 243.043089 L 113.022724 250.975132 Z M 132.866185 255.921682 " transform="matrix(0.399809,0,0,0.400374,0.000000000000006414,-58.854931)"/>
<path style="fill-rule:nonzero;fill:rgb(3.137255%,65.490196%,62.745098%);fill-opacity:1;stroke-width:0.265856;stroke-linecap:butt;stroke-linejoin:miter;stroke:rgb(3.137255%,65.490196%,62.745098%);stroke-opacity:1;stroke-miterlimit:4;" d="M 95.08447 282.722816 L 113.628482 278.527517 L 120.28205 272.234568 L 115.729095 271.707716 L 75.661132 254.233806 L 61.48444 262.965883 Z M 95.08447 282.722816 " transform="matrix(0.399809,0,0,0.400374,0.000000000000006414,-58.854931)"/>
<path style="fill-rule:nonzero;fill:rgb(0%,18.431373%,14.901961%);fill-opacity:1;stroke-width:0.0649025;stroke-linecap:butt;stroke-linejoin:bevel;stroke:rgb(0%,18.431373%,14.901961%);stroke-opacity:1;stroke-miterlimit:4;" d="M 41.142695 231.71578 L 51.225635 265.131828 L 49.320428 265.834297 Z M 41.142695 231.71578 " transform="matrix(0.399809,0,0,0.400374,0.000000000000006414,-58.854931)"/>
<path style="fill:none;stroke-width:0.264583;stroke-linecap:butt;stroke-linejoin:miter;stroke:rgb(0%,0%,0%);stroke-opacity:1;stroke-miterlimit:4;" d="M 51.313567 264.926941 L 51.313567 264.926941 " transform="matrix(0.399809,0,0,0.400374,0.000000000000006414,-58.854931)"/>
<path style="fill:none;stroke-width:0.264583;stroke-linecap:butt;stroke-linejoin:miter;stroke:rgb(0%,0%,0%);stroke-opacity:1;stroke-miterlimit:4;" d="M 51.313567 264.926941 L 51.313567 264.926941 " transform="matrix(0.399809,0,0,0.400374,0.000000000000006414,-58.854931)"/>
<path style="fill-rule:nonzero;fill:rgb(0%,18.431373%,14.901961%);fill-opacity:1;stroke-width:0.065;stroke-linecap:butt;stroke-linejoin:miter;stroke:rgb(0%,18.431373%,14.901961%);stroke-opacity:1;stroke-miterlimit:4;" d="M 59.422909 260.321868 L 52.017028 229.637643 L 61.191331 259.092548 Z M 59.422909 260.321868 " transform="matrix(0.399809,0,0,0.400374,0.000000000000006414,-58.854931)"/>
<path style="fill-rule:nonzero;fill:rgb(0%,18.431373%,14.901961%);fill-opacity:1;stroke-width:0.065;stroke-linecap:butt;stroke-linejoin:miter;stroke:rgb(0%,18.431373%,14.901961%);stroke-opacity:1;stroke-miterlimit:4;" d="M 73.707074 252.038591 L 68.421346 223.471529 L 76.530688 250.623897 Z M 73.707074 252.038591 " transform="matrix(0.399809,0,0,0.400374,0.000000000000006414,-58.854931)"/>
<path style="fill-rule:nonzero;fill:rgb(0%,18.431373%,14.901961%);fill-opacity:1;stroke-width:0.065;stroke-linecap:butt;stroke-linejoin:miter;stroke:rgb(0%,18.431373%,14.901961%);stroke-opacity:1;stroke-miterlimit:4;" d="M 88.870565 243.043089 L 86.398682 212.007629 L 91.870044 241.27716 Z M 88.870565 243.043089 " transform="matrix(0.399809,0,0,0.400374,0.000000000000006414,-58.854931)"/>
<path style="fill-rule:nonzero;fill:rgb(0%,18.431373%,14.901961%);fill-opacity:1;stroke-width:0.065;stroke-linecap:butt;stroke-linejoin:miter;stroke:rgb(0%,18.431373%,14.901961%);stroke-opacity:1;stroke-miterlimit:4;" d="M 12.828392 279.35682 L 15.231883 282.966729 L 52.515313 268.53685 L 115.455526 229.6474 L 143.916383 195.977682 L 153.940702 181.147786 L 143.11522 194.377615 L 113.452617 228.447349 L 51.313567 264.926941 Z M 12.828392 279.35682 " transform="matrix(0.399809,0,0,0.400374,0.000000000000006414,-58.854931)"/>
<path style="fill-rule:nonzero;fill:rgb(0%,18.431373%,14.901961%);fill-opacity:1;stroke-width:0.065;stroke-linecap:butt;stroke-linejoin:miter;stroke:rgb(0%,18.431373%,14.901961%);stroke-opacity:1;stroke-miterlimit:4;" d="M 112.680764 229.462026 C 112.856629 225.588691 111.264072 201.782806 111.264072 201.782806 L 115.494608 226.818012 L 113.91182 229.462026 Z M 112.680764 229.462026 " transform="matrix(0.399809,0,0,0.400374,0.000000000000006414,-58.854931)"/>
<path style="fill-rule:nonzero;fill:rgb(0%,18.431373%,14.901961%);fill-opacity:1;stroke-width:0.0558613;stroke-linecap:butt;stroke-linejoin:miter;stroke:rgb(0%,18.431373%,14.901961%);stroke-opacity:1;stroke-miterlimit:4;" d="M 129.778773 210.368535 L 130.658099 194.016624 L 131.674209 207.646469 Z M 129.778773 210.368535 " transform="matrix(0.399809,0,0,0.400374,0.000000000000006414,-58.854931)"/>
<path style="fill-rule:nonzero;fill:rgb(0%,18.431373%,14.901961%);fill-opacity:1;stroke-width:0.065;stroke-linecap:butt;stroke-linejoin:miter;stroke:rgb(0%,18.431373%,14.901961%);stroke-opacity:1;stroke-miterlimit:4;" d="M 60.12637 263.678108 C 61.367197 263.853725 80.409493 274.254165 80.409493 274.254165 L 62.598253 261.736562 Z M 60.12637 263.678108 " transform="matrix(0.399809,0,0,0.400374,0.000000000000006414,-58.854931)"/>
<path style="fill-rule:nonzero;fill:rgb(0%,18.431373%,14.901961%);fill-opacity:1;stroke-width:0.065;stroke-linecap:butt;stroke-linejoin:miter;stroke:rgb(0%,18.431373%,14.901961%);stroke-opacity:1;stroke-miterlimit:4;" d="M 52.515313 268.53685 L 75.27032 285.737578 L 50.825053 269.258832 Z M 52.515313 268.53685 " transform="matrix(0.399809,0,0,0.400374,0.000000000000006414,-58.854931)"/>
<path style="fill-rule:nonzero;fill:rgb(0%,18.431373%,14.901961%);fill-opacity:1;stroke-width:0.065;stroke-linecap:butt;stroke-linejoin:miter;stroke:rgb(0%,18.431373%,14.901961%);stroke-opacity:1;stroke-miterlimit:4;" d="M 74.234669 255.209457 L 93.628697 262.439031 L 77.234149 252.214208 Z M 74.234669 255.209457 " transform="matrix(0.399809,0,0,0.400374,0.000000000000006414,-58.854931)"/>
<path style="fill-rule:nonzero;fill:rgb(0%,18.431373%,14.901961%);fill-opacity:1;stroke-width:0.0571482;stroke-linecap:butt;stroke-linejoin:miter;stroke:rgb(0%,18.431373%,14.901961%);stroke-opacity:1;stroke-miterlimit:4;" d="M 130.462693 211.363699 L 150.687195 210.007544 L 132.406981 209.197754 Z M 130.462693 211.363699 " transform="matrix(0.399809,0,0,0.400374,0.000000000000006414,-58.854931)"/>
<path style="fill-rule:nonzero;fill:rgb(0%,18.431373%,14.901961%);fill-opacity:1;stroke-width:0.065;stroke-linecap:butt;stroke-linejoin:miter;stroke:rgb(0%,18.431373%,14.901961%);stroke-opacity:1;stroke-miterlimit:4;" d="M 112.680764 229.81326 L 137.360518 232.281658 L 115.494608 226.818012 Z M 112.680764 229.81326 " transform="matrix(0.399809,0,0,0.400374,0.000000000000006414,-58.854931)"/>
<path style="fill-rule:nonzero;fill:rgb(0%,18.431373%,14.901961%);fill-opacity:1;stroke-width:0.065;stroke-linecap:butt;stroke-linejoin:miter;stroke:rgb(0%,18.431373%,14.901961%);stroke-opacity:1;stroke-miterlimit:4;" d="M 88.518835 245.86272 L 113.735955 250.975132 L 92.925236 243.043089 Z M 88.518835 245.86272 " transform="matrix(0.399809,0,0,0.400374,0.000000000000006414,-58.854931)"/>
</g>
</svg>
