<?xml version="1.0" encoding="UTF-8"?>
<svg xmlns="http://www.w3.org/2000/svg" xmlns:xlink="http://www.w3.org/1999/xlink" width="50px" height="37px" viewBox="0 0 49 37" version="1.1">
<g id="surface1">
<path style=" stroke:none;fill-rule:nonzero;fill:rgb(53.72549%,26.27451%,3.921569%);fill-opacity:1;" d="M 24.5 9.574219 C 22.949219 9.574219 21.6875 8.300781 21.6875 6.742188 C 21.6875 5.179688 22.949219 3.910156 24.5 3.910156 C 26.050781 3.910156 27.3125 5.179688 27.3125 6.742188 C 27.3125 8.300781 26.050781 9.574219 24.5 9.574219 Z M 24.5 4.425781 C 23.234375 4.425781 22.203125 5.464844 22.203125 6.742188 C 22.203125 8.015625 23.234375 9.054688 24.5 9.054688 C 25.769531 9.054688 26.800781 8.015625 26.800781 6.742188 C 26.800781 5.464844 25.769531 4.425781 24.5 4.425781 Z M 24.5 4.425781 "/>
<path style=" stroke:none;fill-rule:nonzero;fill:rgb(53.72549%,26.27451%,3.921569%);fill-opacity:1;" d="M 27.757812 36.886719 L 27.757812 15.921875 L 28.277344 15.921875 L 28.277344 36.367188 L 31.148438 36.367188 L 31.148438 36.886719 Z M 27.757812 36.886719 "/>
<path style=" stroke:none;fill-rule:nonzero;fill:rgb(53.72549%,26.27451%,3.921569%);fill-opacity:1;" d="M 21.242188 36.875 L 17.851562 36.875 L 17.851562 36.351562 L 20.722656 36.355469 L 20.722656 15.910156 L 21.242188 15.910156 Z M 21.242188 36.875 "/>
<path style=" stroke:none;fill-rule:nonzero;fill:rgb(53.72549%,26.27451%,3.921569%);fill-opacity:1;" d="M 49 36.875 L 40.367188 36.875 L 37.339844 30.351562 L 30.160156 30.351562 L 30.160156 29.835938 L 37.667969 29.835938 L 40.695312 36.351562 L 48.1875 36.351562 L 31.605469 0.628906 L 17.394531 0.628906 L 0.8125 36.351562 L 8.304688 36.351562 L 11.332031 29.835938 L 18.839844 29.835938 L 18.839844 30.351562 L 11.660156 30.351562 L 8.632812 36.875 L 0 36.875 L 17.066406 0.113281 L 31.933594 0.113281 L 32.003906 0.261719 Z M 49 36.875 "/>
<path style=" stroke:none;fill-rule:nonzero;fill:rgb(53.72549%,26.27451%,3.921569%);fill-opacity:1;" d="M 34.226562 22.417969 L 30.160156 22.417969 L 30.160156 21.898438 L 33.414062 21.898438 L 29.046875 12.492188 L 19.953125 12.492188 L 15.585938 21.898438 L 18.839844 21.898438 L 18.839844 22.417969 L 14.773438 22.417969 L 19.625 11.972656 L 29.375 11.972656 Z M 34.226562 22.417969 "/>
</g>
</svg>
